<svg xmlns="http://www.w3.org/2000/svg" viewBox="0 0 259.96 259.96"><g id="Capa_2" data-name="Capa 2"><g id="Capa_1-2" data-name="Capa 1"><rect width="259.96" height="259.96" rx="7.4" style="fill:#004884"/><path d="M188,86a9.21,9.21,0,0,0-13,0l-9.22,9.23V70.92a9.11,9.11,0,0,0-2.7-6.5l-8.67-8.67a9.14,9.14,0,0,0-6.5-2.7H95.27a9.21,9.21,0,0,0-9.2,9.2V148.5a9.21,9.21,0,0,0,9.2,9.2h61.32a9.21,9.21,0,0,0,9.2-9.2V121.24L188,99A9.2,9.2,0,0,0,188,86Zm-40.63-26.8a3.36,3.36,0,0,1,2.7.9l8.67,8.67a3.37,3.37,0,0,1,.9,2.7H147.39Zm12.27,89.32a3.08,3.08,0,0,1-3.07,3.07H95.27a3.07,3.07,0,0,1-3.06-3.07V62.25a3.07,3.07,0,0,1,3.06-3.07h46V74.51a3.06,3.06,0,0,0,3.07,3.07h15.33v23.77l-9,9.06-4.33,4.33a3.06,3.06,0,0,0-.74,1.2l-4.34,13a3.06,3.06,0,0,0,3.88,3.87l13-4.33a3,3,0,0,0,1.19-.74l.38-.37V148.5Zm-6.88-31.59,4.34,4.33-1.66,1.66-6.5,2.17,2.16-6.51Zm8.67,0-4.34-4.34,14.74-14.75,4.34,4.34Zm22.23-22.25-3.16,3.16-4.33-4.34,3.16-3.16a3.07,3.07,0,0,1,4.33,4.34Z" style="fill:#fabb09"/><path d="M144.33,83.71H101.4a3.07,3.07,0,0,0,0,6.13h42.93a3.07,3.07,0,0,0,0-6.13Z" style="fill:#fabb09"/><path d="M132.06,96H101.4a3.07,3.07,0,0,0,0,6.14h30.66a3.07,3.07,0,0,0,0-6.14Z" style="fill:#fabb09"/><path d="M132.06,108.24H101.4a3.07,3.07,0,0,0,0,6.13h30.66a3.07,3.07,0,1,0,0-6.13Z" style="fill:#fabb09"/><path d="M132.06,120.5H101.4a3.07,3.07,0,0,0,0,6.13h30.66a3.07,3.07,0,1,0,0-6.13Z" style="fill:#fabb09"/><path d="M144.33,139.3h-18.4a3.07,3.07,0,0,0,0,6.14h18.4a3.07,3.07,0,0,0,0-6.14Z" style="fill:#fabb09"/><path d="M74.05,205.25a6.49,6.49,0,0,1-3.26-.81,5.4,5.4,0,0,1-2.21-2.39,8.47,8.47,0,0,1-.79-3.85,8,8,0,0,1,.83-3.8A5.75,5.75,0,0,1,71,192a8.5,8.5,0,0,1,7.41,0,5.56,5.56,0,0,1,2.23,2.68l-3.31,1.31a2.58,2.58,0,0,0-1-1.54,2.92,2.92,0,0,0-1.71-.48,3,3,0,0,0-1.75.49,3,3,0,0,0-1.1,1.43,6.38,6.38,0,0,0-.37,2.34,6.65,6.65,0,0,0,.38,2.44A2.85,2.85,0,0,0,73,202.06a3.52,3.52,0,0,0,1.88.47,3.8,3.8,0,0,0,1.1-.15,2.71,2.71,0,0,0,.87-.42,1.94,1.94,0,0,0,.59-.71,2.39,2.39,0,0,0,.2-1V200H74.48v-2.39h6.18v7.41H78.23L78,201.82l.58.5A4,4,0,0,1,77,204.5,5.21,5.21,0,0,1,74.05,205.25Z" style="fill:#fabb09"/><path d="M83.41,205.05V191.32H94.09v2.77H87v2.78h5.66v2.6H87v2.81h7.38v2.77Z" style="fill:#fabb09"/><path d="M101.89,191.11a8.83,8.83,0,0,1,3.38.6,7.08,7.08,0,0,1,2.55,1.73l-1.73,2.31a6.14,6.14,0,0,0-1.92-1.4,5.5,5.5,0,0,0-2.34-.47,3.66,3.66,0,0,0-1.25.17,1.35,1.35,0,0,0-.68.45,1.13,1.13,0,0,0-.21.67.89.89,0,0,0,.4.74,3.75,3.75,0,0,0,1.33.51l2.3.52a6.35,6.35,0,0,1,3,1.39,3.2,3.2,0,0,1,1,2.43,4,4,0,0,1-.75,2.47,4.57,4.57,0,0,1-2.06,1.51,8.24,8.24,0,0,1-3,.51,11.19,11.19,0,0,1-2.62-.3,8.77,8.77,0,0,1-2.24-.86,6.8,6.8,0,0,1-1.69-1.29l1.73-2.39a5.43,5.43,0,0,0,1.28,1.07,6.93,6.93,0,0,0,1.66.74,6.4,6.4,0,0,0,1.84.27,4.23,4.23,0,0,0,1.22-.15,1.42,1.42,0,0,0,.72-.43,1.12,1.12,0,0,0,.22-.69,1,1,0,0,0-.31-.74,2.62,2.62,0,0,0-1.18-.51l-2.54-.56a9.3,9.3,0,0,1-2.07-.72,3.65,3.65,0,0,1-1.42-1.2,3.28,3.28,0,0,1-.52-1.91,3.88,3.88,0,0,1,.7-2.29,4.68,4.68,0,0,1,2-1.6A8.06,8.06,0,0,1,101.89,191.11Z" style="fill:#fabb09"/><path d="M121.24,191.32v2.77h-4.48v11h-3.57v-11h-4.5v-2.77Z" style="fill:#fabb09"/><path d="M126.85,191.32v13.73h-3.58V191.32Z" style="fill:#fabb09"/><path d="M136,191.11a7.27,7.27,0,0,1,3.59.84,5.73,5.73,0,0,1,2.32,2.43,9.34,9.34,0,0,1,0,7.61,5.71,5.71,0,0,1-2.32,2.42,7.27,7.27,0,0,1-3.59.84,7.37,7.37,0,0,1-3.6-.84,5.65,5.65,0,0,1-2.32-2.42,9.24,9.24,0,0,1,0-7.61,5.67,5.67,0,0,1,2.32-2.43A7.37,7.37,0,0,1,136,191.11Zm0,2.81a2.7,2.7,0,0,0-2.72,1.9,7.88,7.88,0,0,0,0,4.71,2.69,2.69,0,0,0,2.72,1.92,2.83,2.83,0,0,0,1.68-.48,3,3,0,0,0,1-1.44,8.1,8.1,0,0,0,0-4.71,3,3,0,0,0-1-1.42A2.83,2.83,0,0,0,136,193.92Zm-.23-7.3H139L137.12,190h-2.58Z" style="fill:#fabb09"/><path d="M157.59,191.32v13.73h-4l-4.27-7.43-1-2h0l.09,2.54v6.93h-3.17V191.32h4l4.26,7.42,1,2h0l-.08-2.53v-6.93Z" style="fill:#fabb09"/><path d="M172.39,191.32a6.53,6.53,0,0,1,4.94,1.79,8.35,8.35,0,0,1,0,10.15,6.53,6.53,0,0,1-4.94,1.79h-5.82V191.32Zm-.35,11a3,3,0,0,0,2.55-1.05,6.45,6.45,0,0,0,0-6.22,3,3,0,0,0-2.55-1h-1.89v8.32Z" style="fill:#fabb09"/><path d="M181.5,205.05V191.32h10.69v2.77h-7.11v2.78h5.66v2.6h-5.66v2.81h7.38v2.77Z" style="fill:#fabb09"/><path d="M58.8,212.64a6.9,6.9,0,0,1,2.87.54,4,4,0,0,1,1.81,1.56,5.18,5.18,0,0,1,0,4.95,4,4,0,0,1-1.81,1.56,6.9,6.9,0,0,1-2.87.54H56.08v4.57H52.5V212.64Zm-.56,6.47a2.67,2.67,0,0,0,1.7-.47,2.07,2.07,0,0,0,0-2.85,2.67,2.67,0,0,0-1.7-.47H56.08v3.79Z" style="fill:#fabb09"/><path d="M72.94,212.64a5.73,5.73,0,0,1,3.82,1.15,3.81,3.81,0,0,1,1.36,3.07,3.88,3.88,0,0,1-1.35,3.2,5.84,5.84,0,0,1-3.81,1.1l-.33.19H69.91v5H66.39V212.64Zm-.49,6.17A2.41,2.41,0,0,0,74,218.4a1.6,1.6,0,0,0,.52-1.33,1.55,1.55,0,0,0-.52-1.31,2.41,2.41,0,0,0-1.55-.42H69.91v3.47Zm2.1.75,4.38,6.8H75l-3.51-6Z" style="fill:#fabb09"/><path d="M80.72,226.36V212.64H91.41v2.76H84.3v2.79H90v2.6H84.3v2.81h7.38v2.76Z" style="fill:#fabb09"/><path d="M99.21,212.43a9.06,9.06,0,0,1,3.38.59,7.24,7.24,0,0,1,2.55,1.74l-1.73,2.31a6.29,6.29,0,0,0-1.92-1.41,5.65,5.65,0,0,0-2.34-.46,4,4,0,0,0-1.25.16,1.4,1.4,0,0,0-.69.46,1.18,1.18,0,0,0-.2.67.88.88,0,0,0,.4.73,3.51,3.51,0,0,0,1.32.51l2.31.52a6.49,6.49,0,0,1,3,1.4,3.23,3.23,0,0,1,1,2.43,4,4,0,0,1-.75,2.46,4.44,4.44,0,0,1-2.05,1.52,8.28,8.28,0,0,1-3,.51,11.19,11.19,0,0,1-2.62-.3,9,9,0,0,1-2.25-.86,7.46,7.46,0,0,1-1.68-1.29l1.73-2.39a5.47,5.47,0,0,0,1.28,1.07,7.35,7.35,0,0,0,1.66.74,6.35,6.35,0,0,0,1.84.27,4.28,4.28,0,0,0,1.22-.15,1.36,1.36,0,0,0,.71-.44,1,1,0,0,0,.23-.68,1,1,0,0,0-.31-.74,2.68,2.68,0,0,0-1.18-.51l-2.54-.56a9.3,9.3,0,0,1-2.07-.72,3.69,3.69,0,0,1-1.43-1.21,3.32,3.32,0,0,1-.52-1.9,3.94,3.94,0,0,1,.71-2.3A4.74,4.74,0,0,1,96,213,7.89,7.89,0,0,1,99.21,212.43Z" style="fill:#fabb09"/><path d="M118.55,212.64v2.76h-4.47v11H110.5v-11H106v-2.76Z" style="fill:#fabb09"/><path d="M131.34,226.36h-3.68l-1-3.1H122l-1,3.1h-3.6l4.82-13.72h4.29Zm-8.67-5.53H126l-1.69-5.55Z" style="fill:#fabb09"/><path d="M144.61,222.43a5.42,5.42,0,0,1-1.27,2.36,5.07,5.07,0,0,1-2.08,1.35,7.77,7.77,0,0,1-2.66.43,7.31,7.31,0,0,1-3.6-.84,5.67,5.67,0,0,1-2.33-2.42,9.37,9.37,0,0,1,0-7.62,5.67,5.67,0,0,1,2.33-2.42,7.29,7.29,0,0,1,3.58-.84,8,8,0,0,1,2.64.41,5.27,5.27,0,0,1,2,1.23,4.69,4.69,0,0,1,1.18,2.15l-3.14,1.26a2.86,2.86,0,0,0-.94-1.76,2.74,2.74,0,0,0-1.66-.48,3,3,0,0,0-1.69.48,2.91,2.91,0,0,0-1.1,1.42,6.23,6.23,0,0,0-.39,2.36,6.71,6.71,0,0,0,.36,2.35,2.81,2.81,0,0,0,1.07,1.44,3.17,3.17,0,0,0,1.77.47,2.63,2.63,0,0,0,1.7-.55,2.86,2.86,0,0,0,1-1.69Z" style="fill:#fabb09"/><path d="M150.18,212.64v13.72h-3.57V212.64Z" style="fill:#fabb09"/><path d="M159.38,212.43a7.23,7.23,0,0,1,3.58.84,5.65,5.65,0,0,1,2.32,2.42,9.37,9.37,0,0,1,0,7.62,5.65,5.65,0,0,1-2.32,2.42,7.23,7.23,0,0,1-3.58.84,7.31,7.31,0,0,1-3.6-.84,5.61,5.61,0,0,1-2.33-2.42,9.37,9.37,0,0,1,0-7.62,5.61,5.61,0,0,1,2.33-2.42A7.31,7.31,0,0,1,159.38,212.43Zm0,2.81a2.71,2.71,0,0,0-2.73,1.9,8.1,8.1,0,0,0,0,4.71,2.67,2.67,0,0,0,2.73,1.91,2.88,2.88,0,0,0,1.67-.47,3,3,0,0,0,1-1.44,8.1,8.1,0,0,0,0-4.71,2.92,2.92,0,0,0-1-1.42A2.82,2.82,0,0,0,159.38,215.24Z" style="fill:#fabb09"/><path d="M180.92,212.64v13.72h-4l-4.27-7.42-1-2h0l.09,2.54v6.92h-3.16V212.64h4l4.26,7.42,1,2h0l-.08-2.54v-6.92Z" style="fill:#fabb09"/><path d="M184,226.36V212.64h10.69v2.76h-7.12v2.79h5.66v2.6h-5.66v2.81h7.39v2.76Z" style="fill:#fabb09"/><path d="M202.45,212.43a9,9,0,0,1,3.37.59,7.24,7.24,0,0,1,2.55,1.74l-1.72,2.31a6.33,6.33,0,0,0-1.93-1.41,5.59,5.59,0,0,0-2.34-.46,4,4,0,0,0-1.25.16,1.41,1.41,0,0,0-.68.46,1.11,1.11,0,0,0-.21.67.89.89,0,0,0,.41.73,3.51,3.51,0,0,0,1.32.51l2.31.52a6.45,6.45,0,0,1,3,1.4,3.2,3.2,0,0,1,1,2.43,4,4,0,0,1-.75,2.46,4.52,4.52,0,0,1-2.06,1.52,8.18,8.18,0,0,1-3,.51,11.13,11.13,0,0,1-2.62-.3,8.7,8.7,0,0,1-2.25-.86,7.31,7.31,0,0,1-1.69-1.29l1.73-2.39a5.68,5.68,0,0,0,1.28,1.07,7.55,7.55,0,0,0,1.66.74,6.45,6.45,0,0,0,1.84.27,4.23,4.23,0,0,0,1.22-.15,1.39,1.39,0,0,0,.72-.44,1.07,1.07,0,0,0,.23-.68,1,1,0,0,0-.32-.74,2.62,2.62,0,0,0-1.18-.51l-2.54-.56a9.48,9.48,0,0,1-2.07-.72A3.59,3.59,0,0,1,197,218.8a3.25,3.25,0,0,1-.52-1.9,3.87,3.87,0,0,1,.71-2.3,4.76,4.76,0,0,1,2-1.59A7.9,7.9,0,0,1,202.45,212.43Z" style="fill:#fabb09"/></g></g></svg>