<svg xmlns="http://www.w3.org/2000/svg" viewBox="0 0 259.96 259.96"><g id="Capa_2" data-name="Capa 2"><g id="Capa_1-2" data-name="Capa 1"><rect width="259.96" height="259.96" rx="7.4" style="fill:#004884"/><path d="M73.8,191.32a6.9,6.9,0,0,1,2.87.54,4,4,0,0,1,1.81,1.56,5.25,5.25,0,0,1,0,5,4,4,0,0,1-1.81,1.56,6.9,6.9,0,0,1-2.87.54H71.07V205H67.5V191.32Zm-.56,6.47a2.64,2.64,0,0,0,1.69-.47,2.07,2.07,0,0,0,0-2.85,2.64,2.64,0,0,0-1.69-.47H71.07v3.79Z" style="fill:#fabb09"/><path d="M92.47,205H88.79l-1-3.09h-4.7l-1,3.09h-3.6l4.82-13.72h4.29Zm-8.67-5.53h3.37L85.48,194Z" style="fill:#fabb09"/><path d="M99.25,205.25a6.45,6.45,0,0,1-3.25-.81,5.54,5.54,0,0,1-2.22-2.39A8.5,8.5,0,0,1,93,198.2a8.11,8.11,0,0,1,.83-3.8A5.8,5.8,0,0,1,96.21,192a7.5,7.5,0,0,1,3.64-.85,7.41,7.41,0,0,1,3.77.84,5.44,5.44,0,0,1,2.22,2.68l-3.3,1.31a2.54,2.54,0,0,0-1-1.54,2.91,2.91,0,0,0-1.7-.48,3,3,0,0,0-1.75.49,2.93,2.93,0,0,0-1.1,1.43,6.37,6.37,0,0,0-.38,2.34,6.67,6.67,0,0,0,.39,2.44,2.78,2.78,0,0,0,1.14,1.44,3.54,3.54,0,0,0,1.88.47,3.92,3.92,0,0,0,1.11-.15A2.71,2.71,0,0,0,102,202a2,2,0,0,0,.58-.71,2.25,2.25,0,0,0,.21-1V200H99.69v-2.39h6.18V205h-2.44l-.27-3.22.58.5a3.86,3.86,0,0,1-1.57,2.17A5.11,5.11,0,0,1,99.25,205.25Z" style="fill:#fabb09"/><path d="M114.77,191.11a7.23,7.23,0,0,1,3.58.84,5.62,5.62,0,0,1,2.32,2.43,9.34,9.34,0,0,1,0,7.61,5.65,5.65,0,0,1-2.32,2.42,7.23,7.23,0,0,1-3.58.84,7.31,7.31,0,0,1-3.6-.84,5.67,5.67,0,0,1-2.33-2.42,9.34,9.34,0,0,1,0-7.61,5.64,5.64,0,0,1,2.33-2.43A7.31,7.31,0,0,1,114.77,191.11Zm0,2.81a2.88,2.88,0,0,0-1.69.48,2.92,2.92,0,0,0-1,1.42,8.1,8.1,0,0,0,0,4.71,2.94,2.94,0,0,0,1,1.44,2.88,2.88,0,0,0,1.69.48,2.82,2.82,0,0,0,1.67-.48,3,3,0,0,0,1-1.44,8.1,8.1,0,0,0,0-4.71,3,3,0,0,0-1-1.42A2.82,2.82,0,0,0,114.77,193.92Z" style="fill:#fabb09"/><path d="M129.18,191.11a9.1,9.1,0,0,1,3.38.59,7.2,7.2,0,0,1,2.54,1.74l-1.72,2.31a6.41,6.41,0,0,0-1.92-1.41,5.65,5.65,0,0,0-2.34-.46,3.91,3.91,0,0,0-1.25.16,1.4,1.4,0,0,0-.69.46,1.13,1.13,0,0,0-.21.67.92.92,0,0,0,.41.74,3.52,3.52,0,0,0,1.32.5l2.31.52a6.4,6.4,0,0,1,3,1.4,3.2,3.2,0,0,1,1,2.43,4,4,0,0,1-.75,2.47,4.52,4.52,0,0,1-2.06,1.51,8.18,8.18,0,0,1-3,.51,11.13,11.13,0,0,1-2.62-.3,9,9,0,0,1-2.25-.86,7.25,7.25,0,0,1-1.68-1.29l1.72-2.39a5.64,5.64,0,0,0,1.28,1.07,7,7,0,0,0,1.67.74,6.35,6.35,0,0,0,1.84.27,4.16,4.16,0,0,0,1.21-.15,1.35,1.35,0,0,0,.72-.44,1.07,1.07,0,0,0,.23-.68,1,1,0,0,0-.31-.74,2.73,2.73,0,0,0-1.19-.51l-2.54-.56a9.39,9.39,0,0,1-2.06-.72,3.68,3.68,0,0,1-1.43-1.2,3.3,3.3,0,0,1-.52-1.91,3.94,3.94,0,0,1,.71-2.3,4.74,4.74,0,0,1,2-1.59A8,8,0,0,1,129.18,191.11Z" style="fill:#fabb09"/><path d="M146.75,191.32V205h-3.58V191.32Z" style="fill:#fabb09"/><path d="M156.09,191.32a6.9,6.9,0,0,1,2.87.54,4,4,0,0,1,1.81,1.56,5.25,5.25,0,0,1,0,5,4,4,0,0,1-1.81,1.56,6.9,6.9,0,0,1-2.87.54h-2.73V205h-3.57V191.32Zm-.56,6.47a2.62,2.62,0,0,0,1.69-.47,2.07,2.07,0,0,0,0-2.85,2.62,2.62,0,0,0-1.69-.47h-2.17v3.79Z" style="fill:#fabb09"/><path d="M169,191.11a9,9,0,0,1,3.38.59,7.24,7.24,0,0,1,2.55,1.74l-1.72,2.31a6.33,6.33,0,0,0-1.93-1.41,5.59,5.59,0,0,0-2.34-.46,3.85,3.85,0,0,0-1.24.16,1.4,1.4,0,0,0-.69.46,1.13,1.13,0,0,0-.21.67.92.92,0,0,0,.41.74,3.52,3.52,0,0,0,1.32.5l2.31.52a6.45,6.45,0,0,1,3,1.4,3.2,3.2,0,0,1,1,2.43,4,4,0,0,1-.75,2.47,4.57,4.57,0,0,1-2.06,1.51,8.2,8.2,0,0,1-3,.51,11.25,11.25,0,0,1-2.62-.3,8.77,8.77,0,0,1-2.24-.86,7.31,7.31,0,0,1-1.69-1.29l1.73-2.39a5.43,5.43,0,0,0,1.28,1.07,6.93,6.93,0,0,0,1.66.74,6.45,6.45,0,0,0,1.84.27,4.23,4.23,0,0,0,1.22-.15,1.39,1.39,0,0,0,.72-.44,1.07,1.07,0,0,0,.23-.68,1,1,0,0,0-.32-.74,2.62,2.62,0,0,0-1.18-.51l-2.54-.56a9.48,9.48,0,0,1-2.07-.72,3.65,3.65,0,0,1-1.42-1.2,3.3,3.3,0,0,1-.52-1.91,3.87,3.87,0,0,1,.71-2.3,4.76,4.76,0,0,1,2-1.59A8.06,8.06,0,0,1,169,191.11Z" style="fill:#fabb09"/><path d="M194.38,191.32,189.53,200v5H186v-5l-4.84-8.71h3.7l1.93,3.76,1,2.29,1-2.29,1.94-3.76Z" style="fill:#fabb09"/><path d="M60.5,212.64a6.9,6.9,0,0,1,2.87.54,4,4,0,0,1,1.81,1.56,5.25,5.25,0,0,1,0,4.95,4,4,0,0,1-1.81,1.56,6.9,6.9,0,0,1-2.87.54H57.77v4.57H54.2V212.64Zm-.56,6.46a2.64,2.64,0,0,0,1.69-.46,1.76,1.76,0,0,0,.57-1.43,1.72,1.72,0,0,0-.57-1.42,2.64,2.64,0,0,0-1.69-.47H57.77v3.78Z" style="fill:#fabb09"/><path d="M74.64,212.64a5.75,5.75,0,0,1,3.82,1.15,3.84,3.84,0,0,1,1.36,3.07,3.88,3.88,0,0,1-1.35,3.2,5.86,5.86,0,0,1-3.81,1.1l-.33.19H71.6v5H68.09V212.64Zm-.5,6.17a2.53,2.53,0,0,0,1.56-.41,1.6,1.6,0,0,0,.52-1.33,1.55,1.55,0,0,0-.52-1.31,2.46,2.46,0,0,0-1.56-.42H71.6v3.47Zm2.1.75,4.39,6.8H76.68l-3.52-6Z" style="fill:#fabb09"/><path d="M88.43,212.43a7.23,7.23,0,0,1,3.58.84,5.65,5.65,0,0,1,2.32,2.42,9.37,9.37,0,0,1,0,7.62A5.65,5.65,0,0,1,92,225.73a7.23,7.23,0,0,1-3.58.84,7.31,7.31,0,0,1-3.6-.84,5.67,5.67,0,0,1-2.33-2.42,9.37,9.37,0,0,1,0-7.62,5.67,5.67,0,0,1,2.33-2.42A7.31,7.31,0,0,1,88.43,212.43Zm0,2.81a2.68,2.68,0,0,0-2.73,1.9,8.1,8.1,0,0,0,0,4.71,2.7,2.7,0,0,0,2.73,1.91,2.82,2.82,0,0,0,1.67-.48,2.91,2.91,0,0,0,1-1.43,8.1,8.1,0,0,0,0-4.71,3,3,0,0,0-1-1.43A2.88,2.88,0,0,0,88.43,215.24Z" style="fill:#fabb09"/><path d="M109.79,212.64l-4.87,13.72h-4.2l-4.89-13.72h3.76l2.52,8.29.75,2.71.73-2.66,2.56-8.34Z" style="fill:#fabb09"/><path d="M111.43,226.36V212.64h10.69v2.76H115v2.79h5.66v2.6H115v2.81h7.39v2.76Z" style="fill:#fabb09"/><path d="M124.55,226.36V212.64h10.69v2.76h-7.11v2.79h5.65v2.6h-5.65v2.81h7.38v2.76Z" style="fill:#fabb09"/><path d="M143.5,212.64a6.54,6.54,0,0,1,4.94,1.78,8.39,8.39,0,0,1,0,10.15,6.51,6.51,0,0,1-4.94,1.79h-5.83V212.64Zm-.36,11a3,3,0,0,0,2.55-1,6.45,6.45,0,0,0,0-6.22,3,3,0,0,0-2.55-1h-1.89v8.32Z" style="fill:#fabb09"/><path d="M158.76,212.43a7.27,7.27,0,0,1,3.59.84,5.71,5.71,0,0,1,2.32,2.42,9.37,9.37,0,0,1,0,7.62,5.71,5.71,0,0,1-2.32,2.42,8.11,8.11,0,0,1-7.19,0,5.67,5.67,0,0,1-2.33-2.42,9.37,9.37,0,0,1,0-7.62,5.67,5.67,0,0,1,2.33-2.42A7.31,7.31,0,0,1,158.76,212.43Zm0,2.81a2.67,2.67,0,0,0-2.72,1.9,7.88,7.88,0,0,0,0,4.71,2.85,2.85,0,0,0,5.42,0,7.88,7.88,0,0,0,0-4.71,2.65,2.65,0,0,0-2.7-1.9Z" style="fill:#fabb09"/><path d="M174.48,212.64a5.73,5.73,0,0,1,3.82,1.15,3.81,3.81,0,0,1,1.36,3.07,3.88,3.88,0,0,1-1.35,3.2,5.84,5.84,0,0,1-3.81,1.1l-.33.19h-2.72v5h-3.52V212.64Zm-.5,6.17a2.49,2.49,0,0,0,1.56-.41,1.6,1.6,0,0,0,.52-1.33,1.55,1.55,0,0,0-.52-1.31,2.42,2.42,0,0,0-1.56-.42h-2.53v3.47Zm2.1.75,4.39,6.8h-3.95l-3.51-6Z" style="fill:#fabb09"/><path d="M182.26,226.36V212.64H193v2.76h-7.11v2.79h5.66v2.6h-5.66v2.81h7.38v2.76Z" style="fill:#fabb09"/><path d="M200.75,212.43a9.1,9.1,0,0,1,3.38.59,7.24,7.24,0,0,1,2.55,1.74L205,217.07a6.24,6.24,0,0,0-1.92-1.41,5.65,5.65,0,0,0-2.34-.47,3.88,3.88,0,0,0-1.25.17,1.33,1.33,0,0,0-.69.46,1.08,1.08,0,0,0-.21.66.89.89,0,0,0,.41.74,3.68,3.68,0,0,0,1.32.51l2.31.52a6.5,6.5,0,0,1,3,1.39,3.22,3.22,0,0,1,1,2.44,4,4,0,0,1-.75,2.46,4.54,4.54,0,0,1-2.06,1.52,8.18,8.18,0,0,1-3,.51,11.13,11.13,0,0,1-2.62-.3,9,9,0,0,1-2.25-.86,7.46,7.46,0,0,1-1.68-1.29l1.72-2.4a5.68,5.68,0,0,0,1.28,1.08,7,7,0,0,0,1.67.73,6.35,6.35,0,0,0,1.84.27,4.19,4.19,0,0,0,1.21-.14,1.35,1.35,0,0,0,.72-.44,1.07,1.07,0,0,0,.23-.68,1,1,0,0,0-.31-.74,2.67,2.67,0,0,0-1.19-.51l-2.54-.56a9.39,9.39,0,0,1-2.06-.72,3.62,3.62,0,0,1-1.43-1.21,3.32,3.32,0,0,1-.52-1.9,3.92,3.92,0,0,1,.71-2.3,4.74,4.74,0,0,1,2-1.59A7.82,7.82,0,0,1,200.75,212.43Z" style="fill:#fabb09"/><path d="M167.7,115.53a9.68,9.68,0,0,0-7.39,1l-22.55,13a10.53,10.53,0,0,0-7.49-7.85l-26.6-7.24-.34-.07a15,15,0,0,0-11.49,3.07l-6.16,4.71a4.18,4.18,0,0,0-5.1-2.9l-6.33,1.7a4.18,4.18,0,0,0-3,5.12l9.18,34.24a4.16,4.16,0,0,0,4,3.1,4.38,4.38,0,0,0,1.08-.14l6.33-1.7a4.18,4.18,0,0,0,3-5.11l-.21-.79a11.89,11.89,0,0,1,10.34-2.2l15.24,3.5a15.49,15.49,0,0,0,11.7-1.58l38.11-22a9.75,9.75,0,0,0,3.56-13.31A9.63,9.63,0,0,0,167.7,115.53ZM89.58,156.79,85.24,158,76.6,125.69l4.33-1.16Zm12.9-37.29,26.42,7.19a5.29,5.29,0,1,1-2.77,10.21L111.91,133a2.61,2.61,0,0,0-1.36,5l14.21,3.87a10.49,10.49,0,0,0,12.44-6.08L162.92,121a4.54,4.54,0,0,1,6.19,1.65,4.54,4.54,0,0,1-1.66,6.2l-38.11,22a10.49,10.49,0,0,1-7.92,1l-15.24-3.5a19.45,19.45,0,0,0-4.26-.5,16.59,16.59,0,0,0-8.67,2.49l-6.11-22.78,7.87-6A9.83,9.83,0,0,1,102.48,119.5Z" style="fill:#fabb09"/><path d="M176.65,83.27H174a21.92,21.92,0,0,0-4.79-23.74,22,22,0,0,0-31,0l-1.59,1.59-1.59-1.59A21.88,21.88,0,0,0,99.34,83.27H96.69a2.61,2.61,0,1,0,0,5.21h5.66a22.9,22.9,0,0,0,1.77,2l30.71,30.7a2.55,2.55,0,0,0,1.84.77,2.59,2.59,0,0,0,1.84-.77l30.7-30.7a21.46,21.46,0,0,0,1.78-2h5.66a2.61,2.61,0,1,0,0-5.21ZM115,88.48l4.77,4.91a2.61,2.61,0,0,0,4.37-1.08l3.53-12,4.66,13.91a2.61,2.61,0,0,0,4.8.35l5.59-11,5.4,11.11a2.59,2.59,0,0,0,2.09,1.45,2.64,2.64,0,0,0,2.33-1l5.06-6.66h6.3l-27.18,27.19L109.49,88.48Zm39.23-4.18-3.28,4.31-5.84-12a2.6,2.6,0,0,0-2.31-1.47h-.05a2.63,2.63,0,0,0-2.31,1.43l-5.14,10.12-5.32-15.86a2.61,2.61,0,0,0-2.48-1.77h0A2.59,2.59,0,0,0,125,70.92l-4.61,15.64-2.43-2.5a2.63,2.63,0,0,0-1.87-.79H105.12a16.68,16.68,0,0,1,26.28-20l3.43,3.43a2.67,2.67,0,0,0,3.68,0l3.43-3.43a16.68,16.68,0,0,1,26.28,20h-12A2.64,2.64,0,0,0,154.18,84.3Z" style="fill:#fabb09"/></g></g></svg>