<svg xmlns="http://www.w3.org/2000/svg" viewBox="0 0 259.96 259.96"><g id="Capa_2" data-name="Capa 2"><g id="Capa_1-2" data-name="Capa 1"><rect width="259.96" height="259.96" rx="7.4" style="fill:#2a9ebd"/><path d="M73.82,191.11a9.1,9.1,0,0,1,3.38.59,7.29,7.29,0,0,1,2.54,1.74L78,195.75a6.33,6.33,0,0,0-1.93-1.41,5.59,5.59,0,0,0-2.34-.46,3.89,3.89,0,0,0-1.24.16,1.4,1.4,0,0,0-.69.46,1.13,1.13,0,0,0-.21.67.92.92,0,0,0,.41.74,3.52,3.52,0,0,0,1.32.5l2.31.52a6.4,6.4,0,0,1,3,1.4,3.2,3.2,0,0,1,1,2.43,4,4,0,0,1-.75,2.47,4.52,4.52,0,0,1-2.06,1.51,8.18,8.18,0,0,1-3,.51,11.13,11.13,0,0,1-2.62-.3,9,9,0,0,1-2.25-.86,7.25,7.25,0,0,1-1.68-1.29L69,200.41a5.64,5.64,0,0,0,1.28,1.07,7,7,0,0,0,1.67.74,6.35,6.35,0,0,0,1.84.27,4.16,4.16,0,0,0,1.21-.15,1.35,1.35,0,0,0,.72-.44,1.07,1.07,0,0,0,.23-.68,1,1,0,0,0-.31-.74,2.73,2.73,0,0,0-1.19-.51l-2.54-.56a9.39,9.39,0,0,1-2.06-.72,3.68,3.68,0,0,1-1.43-1.2,3.3,3.3,0,0,1-.52-1.91,3.94,3.94,0,0,1,.71-2.3,4.74,4.74,0,0,1,2-1.59A8,8,0,0,1,73.82,191.11Z" style="fill:#fff"/><path d="M81.87,205V191.32H92.56v2.76H85.44v2.79H91.1v2.6H85.44v2.81h7.39V205Z" style="fill:#fff"/><path d="M107,201.11a5.42,5.42,0,0,1-1.27,2.36,5.2,5.2,0,0,1-2.08,1.36,8,8,0,0,1-2.66.42,7.31,7.31,0,0,1-3.6-.84A5.67,5.67,0,0,1,95.09,202a9.34,9.34,0,0,1,0-7.61A5.64,5.64,0,0,1,97.42,192a7.29,7.29,0,0,1,3.58-.84,8.21,8.21,0,0,1,2.64.41,5.27,5.27,0,0,1,2,1.23,4.69,4.69,0,0,1,1.18,2.15l-3.14,1.26a2.91,2.91,0,0,0-.94-1.76,2.74,2.74,0,0,0-1.66-.48,2.85,2.85,0,0,0-2.79,1.9,6.23,6.23,0,0,0-.39,2.36,6.71,6.71,0,0,0,.36,2.35A2.81,2.81,0,0,0,99.37,202a3.1,3.1,0,0,0,1.77.48,2.64,2.64,0,0,0,1.7-.56,2.86,2.86,0,0,0,1-1.69Z" style="fill:#fff"/><path d="M121.19,201.11a5.32,5.32,0,0,1-1.27,2.36,5.2,5.2,0,0,1-2.08,1.36,8,8,0,0,1-2.66.42,7.37,7.37,0,0,1-3.6-.84,5.73,5.73,0,0,1-2.33-2.42,9.34,9.34,0,0,1,0-7.61,5.7,5.7,0,0,1,2.33-2.43,7.31,7.31,0,0,1,3.58-.84,8.21,8.21,0,0,1,2.64.41,5.12,5.12,0,0,1,2,1.23A4.8,4.8,0,0,1,121,194.9l-3.14,1.26a2.92,2.92,0,0,0-1-1.76,2.73,2.73,0,0,0-1.65-.48,3,3,0,0,0-1.7.48,3,3,0,0,0-1.1,1.42,6.23,6.23,0,0,0-.39,2.36,6.71,6.71,0,0,0,.36,2.35,2.81,2.81,0,0,0,1.07,1.44,3.13,3.13,0,0,0,1.78.48,2.63,2.63,0,0,0,1.69-.56,2.81,2.81,0,0,0,1-1.69Z" style="fill:#fff"/><path d="M126.76,191.32V205h-3.57V191.32Z" style="fill:#fff"/><path d="M136,191.11a7.3,7.3,0,0,1,3.59.84,5.65,5.65,0,0,1,2.31,2.43,9.34,9.34,0,0,1,0,7.61,5.68,5.68,0,0,1-2.31,2.42,8.11,8.11,0,0,1-7.19,0A5.67,5.67,0,0,1,130,202a9.34,9.34,0,0,1,0-7.61,5.64,5.64,0,0,1,2.33-2.43A7.31,7.31,0,0,1,136,191.11Zm0,2.81a2.88,2.88,0,0,0-1.69.48,3,3,0,0,0-1,1.42,8.1,8.1,0,0,0,0,4.71,3,3,0,0,0,1,1.44,2.88,2.88,0,0,0,1.69.48,2.82,2.82,0,0,0,1.67-.48,3,3,0,0,0,1-1.44,8.1,8.1,0,0,0,0-4.71,3,3,0,0,0-1-1.42A2.82,2.82,0,0,0,136,193.92Zm-.23-7.3h3.16L137,190h-2.58Z" style="fill:#fff"/><path d="M157.5,191.32V205h-4l-4.26-7.42-1-2h0l.08,2.54V205h-3.16V191.32h4l4.26,7.42,1,2h0l-.08-2.54v-6.92Z" style="fill:#fff"/><path d="M172.31,191.32a6.51,6.51,0,0,1,4.94,1.79,8.39,8.39,0,0,1,0,10.15,6.54,6.54,0,0,1-4.94,1.78h-5.82V191.32Zm-.35,11a3,3,0,0,0,2.54-1.05,6.45,6.45,0,0,0,0-6.22,3,3,0,0,0-2.54-1h-1.9v8.32Z" style="fill:#fff"/><path d="M181.42,205V191.32h10.69v2.76H185v2.79h5.66v2.6H185v2.81h7.39V205Z" style="fill:#fff"/><path d="M110.85,212.64v13.72h-4l-4.26-7.42-1-2h0l.08,2.54v6.92H98.47V212.64h4l4.27,7.42,1,2h0l-.08-2.54v-6.92Z" style="fill:#fff"/><path d="M117.46,212.64v13.72h-3.58V212.64Z" style="fill:#fff"/><path d="M132.87,212.64v13.72h-4l-4.27-7.42-1-2h0l.09,2.54v6.92H120.5V212.64h4l4.26,7.42,1,2h0l-.08-2.54v-6.92Zm-2-4.54a4.79,4.79,0,0,1-.38,1.84,2.56,2.56,0,0,1-.92,1.11,2.31,2.31,0,0,1-1.26.36,2.64,2.64,0,0,1-1-.18,2.83,2.83,0,0,1-.73-.41c-.21-.16-.41-.3-.59-.42a1,1,0,0,0-.58-.18.61.61,0,0,0-.54.3,2.05,2.05,0,0,0-.25.87h-2a3.81,3.81,0,0,1,.81-2.49,2.49,2.49,0,0,1,1.91-.82,2.35,2.35,0,0,1,1,.18,3.4,3.4,0,0,1,.68.41l.55.42a1,1,0,0,0,.56.18.61.61,0,0,0,.55-.29,2.54,2.54,0,0,0,.24-.88Z" style="fill:#fff"/><path d="M142.06,212.43a7.27,7.27,0,0,1,3.59.84,5.71,5.71,0,0,1,2.32,2.42,9.37,9.37,0,0,1,0,7.62,5.71,5.71,0,0,1-2.32,2.42,8.11,8.11,0,0,1-7.19,0,5.73,5.73,0,0,1-2.33-2.42,9.37,9.37,0,0,1,0-7.62,5.73,5.73,0,0,1,2.33-2.42A7.34,7.34,0,0,1,142.06,212.43Zm0,2.81a2.94,2.94,0,0,0-1.68.47,2.89,2.89,0,0,0-1,1.43,7.88,7.88,0,0,0,0,4.71,2.8,2.8,0,0,0,1,1.43,2.87,2.87,0,0,0,1.68.48,2.83,2.83,0,0,0,1.68-.48,2.91,2.91,0,0,0,1-1.43,8.1,8.1,0,0,0,0-4.71,3,3,0,0,0-1-1.43A2.89,2.89,0,0,0,142.06,215.24Z" style="fill:#fff"/><path d="M156.47,212.43a9,9,0,0,1,3.38.59,7.24,7.24,0,0,1,2.55,1.74l-1.73,2.31a6,6,0,0,0-1.92-1.41,5.65,5.65,0,0,0-2.34-.47,3.92,3.92,0,0,0-1.25.17,1.3,1.3,0,0,0-.68.46,1.08,1.08,0,0,0-.21.66.88.88,0,0,0,.4.74,3.75,3.75,0,0,0,1.33.51l2.3.52a6.54,6.54,0,0,1,3,1.39,3.22,3.22,0,0,1,1,2.44,4,4,0,0,1-.75,2.46,4.59,4.59,0,0,1-2.06,1.52,8.24,8.24,0,0,1-3,.51,11.19,11.19,0,0,1-2.62-.3,8.77,8.77,0,0,1-2.24-.86,7.31,7.31,0,0,1-1.69-1.29l1.73-2.4a5.46,5.46,0,0,0,1.28,1.08,6.91,6.91,0,0,0,1.66.73,6.4,6.4,0,0,0,1.84.27,4.26,4.26,0,0,0,1.22-.14,1.43,1.43,0,0,0,.72-.44,1.07,1.07,0,0,0,.22-.68,1,1,0,0,0-.31-.74,2.62,2.62,0,0,0-1.18-.51l-2.54-.56a9.3,9.3,0,0,1-2.07-.72,3.59,3.59,0,0,1-1.42-1.21,3.25,3.25,0,0,1-.52-1.9,3.91,3.91,0,0,1,.7-2.3,4.74,4.74,0,0,1,2-1.59A7.89,7.89,0,0,1,156.47,212.43Z" style="fill:#fff"/><path d="M199.26,106.56A12.56,12.56,0,0,0,190,103h-.48c0-.15,0-.3,0-.45l.06-.14c1.19-3,2.53-6.45,2.53-10.19,0-15.68-12.39-27.06-29.46-27.06s-29.25,11.38-29.25,27.06a28.78,28.78,0,0,0,2.38,10.28c0,.16,0,.33,0,.49-2.62,0-6.58.51-9.49,3.54-2.69,2.8-3.94,7.14-3.71,12.89l0,.6.59.1.14,0c1,.09,2.06.13,3,.13,7.67,0,11.07-3,12.54-6a26.35,26.35,0,0,0,5.36,7,38.84,38.84,0,0,0-11.73,12.34,2.16,2.16,0,0,0-.25.27l-.07.13a3.05,3.05,0,0,0-.13.32,38.49,38.49,0,0,0-2.39,5.28,38.13,38.13,0,0,0-2.39-5.25,1.85,1.85,0,0,0-.12-.33l-.07-.13c-.09-.11-.18-.22-.28-.32A39,39,0,0,0,115,121.27a26.67,26.67,0,0,0,8.43-17.47l0,0c5-14.78,3.79-24.31,3.74-24.7v-.14c-.94-5-4.35-9.17-9.86-12.06-10.16-5.29-24.38-5-31.73-1.7-9.15,4.11-14.37.26-14.58.09A2.52,2.52,0,0,0,67,67l-.79,9.91c-.06.49-1.43,12.14,3.55,26.81a1,1,0,0,0,.16.31,26.66,26.66,0,0,0,8.41,17.19,39.22,39.22,0,0,0-11.86,12.43,2.26,2.26,0,0,0-.25.29l-.08.13a2,2,0,0,0-.12.31,40.35,40.35,0,0,0-4.88,16.52,2.54,2.54,0,0,0,2.37,2.72h.14a2.52,2.52,0,0,0,2.51-2.32,35.58,35.58,0,0,1,3.22-12.42L76.2,143v8.1a2.52,2.52,0,0,0,5,0v-9.52A2.51,2.51,0,0,0,80,139.45l-8.23-4.95a34.35,34.35,0,0,1,10.62-10.06,26.76,26.76,0,0,0,28.38.06,35.08,35.08,0,0,1,10.65,10l-8.15,4.91a2.52,2.52,0,0,0-1.21,2.15v9.55a2.51,2.51,0,0,0,.81,1.75,2.44,2.44,0,0,0,1.81.67,2.53,2.53,0,0,0,2.41-2.45V143l6.83-4.11a35,35,0,0,1,3.26,12.42,2.49,2.49,0,0,0,1.33,2l.13.07a2.68,2.68,0,0,0,.63.18l.17.07h.39a.75.75,0,0,0,.3-.06,2.52,2.52,0,0,0,2.12-2.26,35.64,35.64,0,0,1,3.22-12.42l6.87,4.14v8.1a2.52,2.52,0,0,0,5,0V141.6a2.52,2.52,0,0,0-1.21-2.15L138,134.5a34.4,34.4,0,0,1,10.45-10,26.76,26.76,0,0,0,28.61,0,35.09,35.09,0,0,1,10.59,10l-8.15,4.91a2.5,2.5,0,0,0-1.21,2.15v9.53a2.52,2.52,0,0,0,5,0V143l6.83-4.11a35.21,35.21,0,0,1,3.26,12.42,2.52,2.52,0,0,0,2.71,2.3,2.46,2.46,0,0,0,1.71-.87,2.53,2.53,0,0,0,.6-1.84,40,40,0,0,0-4.87-16.47,3.62,3.62,0,0,0-.13-.35l-.07-.11a2.16,2.16,0,0,0-.27-.33,39.24,39.24,0,0,0-11.85-12.38,27.38,27.38,0,0,0,5.4-7.15c1.44,3.12,4.83,6.17,12.63,6.17.94,0,2,0,3-.13l.73-.12,0-.6C203.21,113.7,202,109.36,199.26,106.56Zm-65.21,6.21h0c-1,1.44-3.13,2.26-6.22,2.46A9.18,9.18,0,0,1,130,110a7.32,7.32,0,0,1,5-2A7.25,7.25,0,0,1,134.05,112.77Zm28.7-23.52c4.83,8,14.27,12.33,21.71,14.6a21.84,21.84,0,0,1-43.5,0C148.44,101.54,157.91,97.21,162.75,89.25Zm.06-8.77h-.1a2.52,2.52,0,0,0-2.42,1.88c-2.47,9.49-13.56,14.39-20.42,16.55a20.47,20.47,0,0,1-1.37-6.67,20.82,20.82,0,0,1,6.08-15.09c4.46-4.47,10.9-6.93,18.12-6.93,14.16,0,24.43,9.27,24.43,22a19.54,19.54,0,0,1-1.54,6.7c-6.82-2.15-17.87-7-20.35-16.58A2.54,2.54,0,0,0,162.81,80.48Zm27.82,27.59a7.25,7.25,0,0,1,5,2,9.06,9.06,0,0,1,2.16,5.18c-3.09-.2-5.18-1-6.22-2.46h0A7.25,7.25,0,0,1,190.63,108.07ZM115,71.31c4.15,2.18,6.58,5,7.24,8.41,0,.3.73,7.08-2,17.54l-6.29-9a2.53,2.53,0,0,0-2.06-1.08,2.43,2.43,0,0,0-.94.19c-.07,0-7.62,3-14.38,3-6.58-.05-14.13-3-14.21-3.05a2.53,2.53,0,0,0-3,.9l-6.26,9a59.69,59.69,0,0,1-1.87-19.75l.51-6.37c3.56,1.22,9,1.78,16-1.37C94,66.9,106.45,66.85,115,71.31ZM82.31,92.74A48.43,48.43,0,0,0,96.7,95.47a48.69,48.69,0,0,0,14.16-2.73l7.56,10.81A21.85,21.85,0,0,1,95,123.4a22,22,0,0,1-20.1-20Z" style="fill:#fff"/></g></g></svg>