<svg xmlns="http://www.w3.org/2000/svg" viewBox="0 0 259.96 259.96"><g id="Capa_2" data-name="Capa 2"><g id="Capa_1-2" data-name="Capa 1"><rect width="259.96" height="259.96" rx="7.4" style="fill:#2a9ebd"/><path d="M56.12,191.32v13.73h-4l-4.27-7.43-1-2h0l.09,2.54v6.93H43.75V191.32h4L52,198.74l1,2h0L53,198.25v-6.93Z" style="fill:#fff"/><path d="M65.31,191.11a7.27,7.27,0,0,1,3.59.84,5.73,5.73,0,0,1,2.32,2.43,9.34,9.34,0,0,1,0,7.61,5.71,5.71,0,0,1-2.32,2.42,7.27,7.27,0,0,1-3.59.84,7.37,7.37,0,0,1-3.6-.84A5.73,5.73,0,0,1,59.38,202a9.34,9.34,0,0,1,0-7.61A5.75,5.75,0,0,1,61.71,192,7.37,7.37,0,0,1,65.31,191.11Zm0,2.81a2.7,2.7,0,0,0-2.72,1.9,7.88,7.88,0,0,0,0,4.71,2.88,2.88,0,0,0,1,1.44A3.18,3.18,0,0,0,67,202a3,3,0,0,0,1-1.44,8.1,8.1,0,0,0,0-4.71,3,3,0,0,0-1-1.42A2.83,2.83,0,0,0,65.31,193.92Z" style="fill:#fff"/><path d="M85.46,191.32v2.77H81v11H77.42v-11h-4.5v-2.77Z" style="fill:#fff"/><path d="M91.08,191.32v13.73H87.5V191.32Z" style="fill:#fff"/><path d="M104.78,194.09H97.69V197h5.66v2.76H97.69v5.29H94.11V191.32h10.67Z" style="fill:#fff"/><path d="M110.42,191.32v13.73h-3.58V191.32Z" style="fill:#fff"/><path d="M125.62,201.12a5.43,5.43,0,0,1-1.27,2.36,5.28,5.28,0,0,1-2.08,1.35,8,8,0,0,1-2.66.42,7.37,7.37,0,0,1-3.6-.84,5.73,5.73,0,0,1-2.33-2.42,9.34,9.34,0,0,1,0-7.61A5.75,5.75,0,0,1,116,192a7.31,7.31,0,0,1,3.58-.84,8.21,8.21,0,0,1,2.64.41,5,5,0,0,1,2,1.24,4.71,4.71,0,0,1,1.19,2.14l-3.15,1.27a2.87,2.87,0,0,0-.94-1.77,2.73,2.73,0,0,0-1.65-.48,2.85,2.85,0,0,0-2.8,1.9,6.23,6.23,0,0,0-.39,2.36,6.67,6.67,0,0,0,.36,2.35A2.81,2.81,0,0,0,118,202a3.13,3.13,0,0,0,1.78.48,2.68,2.68,0,0,0,1.69-.55,2.87,2.87,0,0,0,.95-1.7Z" style="fill:#fff"/><path d="M140.1,205.05h-3.68l-1-3.1h-4.7l-1,3.1h-3.6L131,191.32h4.28Zm-8.68-5.54h3.37L133.11,194Z" style="fill:#fff"/><path d="M153.36,201.12a5.52,5.52,0,0,1-1.26,2.36,5.43,5.43,0,0,1-2.08,1.35,8.13,8.13,0,0,1-2.67.42,7.3,7.3,0,0,1-3.59-.84,5.61,5.61,0,0,1-2.33-2.42,9.34,9.34,0,0,1,0-7.61,5.64,5.64,0,0,1,2.33-2.43,7.25,7.25,0,0,1,3.57-.84,8.32,8.32,0,0,1,2.65.41,5.06,5.06,0,0,1,2,1.24,4.62,4.62,0,0,1,1.19,2.14l-3.14,1.27a2.92,2.92,0,0,0-.95-1.77,2.71,2.71,0,0,0-1.65-.48,3,3,0,0,0-1.7.48,3.08,3.08,0,0,0-1.1,1.42,6.24,6.24,0,0,0-.38,2.36,6.69,6.69,0,0,0,.35,2.35A2.86,2.86,0,0,0,145.7,202a3.13,3.13,0,0,0,1.78.48,2.66,2.66,0,0,0,1.69-.55,2.87,2.87,0,0,0,1-1.7Z" style="fill:#fff"/><path d="M158.94,191.32v13.73h-3.58V191.32Z" style="fill:#fff"/><path d="M168.13,191.11a7.27,7.27,0,0,1,3.59.84,5.73,5.73,0,0,1,2.32,2.43,9.34,9.34,0,0,1,0,7.61,5.71,5.71,0,0,1-2.32,2.42,8.11,8.11,0,0,1-7.19,0A5.67,5.67,0,0,1,162.2,202a9.34,9.34,0,0,1,0-7.61,5.7,5.7,0,0,1,2.33-2.43A7.31,7.31,0,0,1,168.13,191.11Zm0,2.81a2.83,2.83,0,0,0-1.68.48,2.86,2.86,0,0,0-1,1.42,7.88,7.88,0,0,0,0,4.71,2.88,2.88,0,0,0,1,1.44,2.83,2.83,0,0,0,1.68.48,2.79,2.79,0,0,0,1.67-.48,2.92,2.92,0,0,0,1-1.44,7.88,7.88,0,0,0,0-4.71,2.91,2.91,0,0,0-1-1.42A2.79,2.79,0,0,0,168.13,193.92Z" style="fill:#fff"/><path d="M189.68,191.32v13.73h-4l-4.26-7.43-1-2h0l.08,2.54v6.93H177.3V191.32h4l4.27,7.42,1,2h0l-.09-2.53v-6.93Z" style="fill:#fff"/><path d="M192.71,205.05V191.32H203.4v2.77h-7.11v2.78H202v2.6h-5.66v2.81h7.38v2.77Z" style="fill:#fff"/><path d="M211.2,191.11a8.86,8.86,0,0,1,3.38.6,7.08,7.08,0,0,1,2.55,1.73l-1.73,2.31a6.37,6.37,0,0,0-1.92-1.4,5.5,5.5,0,0,0-2.34-.47,3.62,3.62,0,0,0-1.25.17,1.39,1.39,0,0,0-.69.45,1.13,1.13,0,0,0-.2.67.89.89,0,0,0,.4.74,3.68,3.68,0,0,0,1.32.51l2.31.52a6.39,6.39,0,0,1,3,1.39,3.23,3.23,0,0,1,.95,2.43,4,4,0,0,1-.75,2.47,4.52,4.52,0,0,1-2.06,1.51,8.18,8.18,0,0,1-3,.51,11.19,11.19,0,0,1-2.62-.3,9,9,0,0,1-2.25-.86,6.93,6.93,0,0,1-1.68-1.29l1.73-2.39a5.37,5.37,0,0,0,1.27,1.07,7,7,0,0,0,1.67.74,6.35,6.35,0,0,0,1.84.27,4.28,4.28,0,0,0,1.22-.15,1.35,1.35,0,0,0,.71-.43,1.06,1.06,0,0,0,.23-.69,1,1,0,0,0-.31-.74,2.67,2.67,0,0,0-1.19-.51l-2.53-.56a9.3,9.3,0,0,1-2.07-.72,3.68,3.68,0,0,1-1.43-1.2,3.36,3.36,0,0,1-.52-1.91,3.89,3.89,0,0,1,.71-2.29,4.68,4.68,0,0,1,2-1.6A8.06,8.06,0,0,1,211.2,191.11Z" style="fill:#fff"/><path d="M82.21,212.64a6.9,6.9,0,0,1,2.87.54,4,4,0,0,1,1.81,1.56,5.25,5.25,0,0,1,0,4.95,4,4,0,0,1-1.81,1.56,6.9,6.9,0,0,1-2.87.54H79.48v4.57H75.91V212.64Zm-.56,6.47a2.62,2.62,0,0,0,1.69-.47,2.07,2.07,0,0,0,0-2.85,2.62,2.62,0,0,0-1.69-.47H79.48v3.79Z" style="fill:#fff"/><path d="M96,212.43a7.23,7.23,0,0,1,3.58.84,5.65,5.65,0,0,1,2.32,2.42,9.37,9.37,0,0,1,0,7.62,5.65,5.65,0,0,1-2.32,2.42,7.23,7.23,0,0,1-3.58.84,7.31,7.31,0,0,1-3.6-.84A5.67,5.67,0,0,1,90,223.31a9.37,9.37,0,0,1,0-7.62,5.67,5.67,0,0,1,2.33-2.42A7.31,7.31,0,0,1,96,212.43Zm0,2.81a2.71,2.71,0,0,0-2.73,1.9,8.1,8.1,0,0,0,0,4.71A2.67,2.67,0,0,0,96,223.76a2.88,2.88,0,0,0,1.67-.47,3,3,0,0,0,1-1.44,8.1,8.1,0,0,0,0-4.71,2.92,2.92,0,0,0-1-1.42A2.82,2.82,0,0,0,96,215.24Z" style="fill:#fff"/><path d="M111.68,212.64a5.7,5.7,0,0,1,3.81,1.15,3.82,3.82,0,0,1,1.37,3.07,3.86,3.86,0,0,1-1.36,3.2,5.83,5.83,0,0,1-3.8,1.1l-.33.19h-2.73v5h-3.51V212.64Zm-.5,6.17a2.46,2.46,0,0,0,1.56-.41,1.63,1.63,0,0,0,.52-1.33,1.58,1.58,0,0,0-.52-1.31,2.46,2.46,0,0,0-1.56-.42h-2.54v3.47Zm2.1.75,4.39,6.8h-4l-3.52-6Z" style="fill:#fff"/><path d="M137.42,226.36h-3.68l-1-3.1h-4.7l-1,3.1h-3.6l4.83-13.72h4.28Zm-8.67-5.53h3.37l-1.68-5.55Z" style="fill:#fff"/><path d="M150.09,212.64l-4.87,13.72H141l-4.89-13.72h3.77l2.52,8.3.74,2.7.73-2.66,2.56-8.34Z" style="fill:#fff"/><path d="M155.31,212.64v13.72h-3.58V212.64Z" style="fill:#fff"/><path d="M163.71,212.43a9.06,9.06,0,0,1,3.38.59,7.24,7.24,0,0,1,2.55,1.74l-1.73,2.31a6.29,6.29,0,0,0-1.92-1.41,5.65,5.65,0,0,0-2.34-.46,4,4,0,0,0-1.25.16,1.4,1.4,0,0,0-.69.46,1.18,1.18,0,0,0-.2.67.88.88,0,0,0,.4.73,3.51,3.51,0,0,0,1.32.51l2.31.52a6.49,6.49,0,0,1,3,1.4,3.23,3.23,0,0,1,.95,2.43,4,4,0,0,1-.75,2.46,4.44,4.44,0,0,1-2,1.52,8.28,8.28,0,0,1-3,.51,11.19,11.19,0,0,1-2.62-.3,9,9,0,0,1-2.25-.86,7.46,7.46,0,0,1-1.68-1.29l1.73-2.39a5.47,5.47,0,0,0,1.28,1.07,7.35,7.35,0,0,0,1.66.74,6.4,6.4,0,0,0,1.84.27,4.28,4.28,0,0,0,1.22-.15,1.36,1.36,0,0,0,.71-.44,1,1,0,0,0,.23-.68,1,1,0,0,0-.31-.74,2.67,2.67,0,0,0-1.19-.51l-2.53-.56a9.3,9.3,0,0,1-2.07-.72,3.69,3.69,0,0,1-1.43-1.21,3.32,3.32,0,0,1-.52-1.9,3.94,3.94,0,0,1,.71-2.3,4.74,4.74,0,0,1,2-1.59A7.89,7.89,0,0,1,163.71,212.43Z" style="fill:#fff"/><path d="M177.91,212.43a7.25,7.25,0,0,1,3.59.84,5.65,5.65,0,0,1,2.32,2.42,9.37,9.37,0,0,1,0,7.62,5.65,5.65,0,0,1-2.32,2.42,8.09,8.09,0,0,1-7.18,0,5.61,5.61,0,0,1-2.33-2.42,9.37,9.37,0,0,1,0-7.62,5.61,5.61,0,0,1,2.33-2.42A7.3,7.3,0,0,1,177.91,212.43Zm0,2.81a2.7,2.7,0,0,0-2.72,1.9,8.1,8.1,0,0,0,0,4.71,2.67,2.67,0,0,0,2.72,1.91,2.89,2.89,0,0,0,1.68-.47,3,3,0,0,0,1-1.44,8.1,8.1,0,0,0,0-4.71,2.92,2.92,0,0,0-1-1.42A2.83,2.83,0,0,0,177.91,215.24Z" style="fill:#fff"/><path d="M164.63,108.71V98A34.71,34.71,0,0,0,140,64.84V60a10.06,10.06,0,0,0-20.12,0v4.84A34.72,34.72,0,0,0,95.32,98v10.7a52.66,52.66,0,0,1-14.71,36.61A3.35,3.35,0,0,0,83,151h30.52a16.77,16.77,0,0,0,32.86,0h30.52a3.35,3.35,0,0,0,2.42-5.67A52.67,52.67,0,0,1,164.63,108.71ZM126.63,60a3.35,3.35,0,1,1,6.7,0v3.51c-1.1-.1-2.22-.16-3.35-.16s-2.25.06-3.35.16ZM130,157.7A10.06,10.06,0,0,1,120.5,151h19A10.06,10.06,0,0,1,130,157.7ZM90.26,144.29A59.35,59.35,0,0,0,102,108.71V98a27.95,27.95,0,0,1,55.9,0v10.7a59.28,59.28,0,0,0,11.77,35.58Z" style="fill:#fff"/><path d="M173.58,98a3.35,3.35,0,0,0,6.7,0,50,50,0,0,0-14.73-35.58,3.36,3.36,0,0,0-4.74,4.75A43.32,43.32,0,0,1,173.58,98Z" style="fill:#fff"/><path d="M83,101.36A3.35,3.35,0,0,0,86.38,98,43.32,43.32,0,0,1,99.15,67.18a3.36,3.36,0,0,0-4.74-4.75A50,50,0,0,0,79.67,98,3.36,3.36,0,0,0,83,101.36Z" style="fill:#fff"/></g></g></svg>