<svg xmlns="http://www.w3.org/2000/svg" viewBox="0 0 259.96 259.96"><g id="Capa_2" data-name="Capa 2"><g id="Capa_1-2" data-name="Capa 1"><rect width="259.96" height="259.96" rx="7.4" style="fill:#2a9ebd"/><path d="M59.62,201.11a5.41,5.41,0,0,1-1.26,2.36,5.34,5.34,0,0,1-2.08,1.36,8.13,8.13,0,0,1-2.67.42,7.3,7.3,0,0,1-3.59-.84A5.61,5.61,0,0,1,47.69,202a9.34,9.34,0,0,1,0-7.61A5.59,5.59,0,0,1,50,192a7.25,7.25,0,0,1,3.57-.84,8.21,8.21,0,0,1,2.64.41,5.12,5.12,0,0,1,2,1.23,4.7,4.7,0,0,1,1.19,2.15l-3.14,1.26a2.92,2.92,0,0,0-1-1.76,2.71,2.71,0,0,0-1.65-.48,2.85,2.85,0,0,0-2.8,1.9,6.24,6.24,0,0,0-.38,2.36,6.73,6.73,0,0,0,.35,2.35A2.86,2.86,0,0,0,52,202a3.13,3.13,0,0,0,1.78.48,2.63,2.63,0,0,0,1.69-.56,2.81,2.81,0,0,0,1-1.69Z" style="fill:#fff"/><path d="M74.1,205H70.42l-1-3.09h-4.7l-1,3.09H60.19L65,191.32h4.28Zm-8.67-5.53H68.8L67.11,194Z" style="fill:#fff"/><path d="M79.28,202.28h6.88V205H75.7V191.32h3.58Z" style="fill:#fff"/><path d="M88.22,205V191.32H98.91v2.76H91.8v2.79h5.65v2.6H91.8v2.81h7.38V205Z" style="fill:#fff"/><path d="M113.72,191.32V205h-4l-4.26-7.42-1-2h0l.08,2.54V205h-3.16V191.32h4l4.27,7.42,1,2h0l-.08-2.54v-6.92Z" style="fill:#fff"/><path d="M122.58,191.32a6.48,6.48,0,0,1,4.93,1.79,8.35,8.35,0,0,1,0,10.15,6.52,6.52,0,0,1-4.93,1.78h-5.83V191.32Zm-.36,11a3,3,0,0,0,2.55-1.05,6.45,6.45,0,0,0,0-6.22,3,3,0,0,0-2.55-1h-1.89v8.32Z" style="fill:#fff"/><path d="M143.66,205H140L139,202h-4.7l-1,3.09h-3.6l4.83-13.72h4.28ZM135,199.51h3.37L136.68,194Z" style="fill:#fff"/><path d="M151.82,191.32a5.72,5.72,0,0,1,3.81,1.15,3.83,3.83,0,0,1,1.36,3.07,3.88,3.88,0,0,1-1.35,3.2,5.83,5.83,0,0,1-3.8,1.11l-.34.18h-2.72v5h-3.52V191.32Zm-.5,6.18a2.46,2.46,0,0,0,1.56-.42,1.63,1.63,0,0,0,.52-1.33,1.6,1.6,0,0,0-.52-1.31,2.46,2.46,0,0,0-1.56-.42h-2.54v3.48Zm2.1.74,4.38,6.8h-4l-3.51-6Z" style="fill:#fff"/><path d="M163.17,191.32V205h-3.58V191.32Z" style="fill:#fff"/><path d="M172.36,191.11A7.27,7.27,0,0,1,176,192a5.68,5.68,0,0,1,2.32,2.43,9.34,9.34,0,0,1,0,7.61,5.71,5.71,0,0,1-2.32,2.42,7.27,7.27,0,0,1-3.59.84,7.37,7.37,0,0,1-3.6-.84,5.65,5.65,0,0,1-2.32-2.42,9.24,9.24,0,0,1,0-7.61,5.62,5.62,0,0,1,2.32-2.43A7.37,7.37,0,0,1,172.36,191.11Zm0,2.81a2.7,2.7,0,0,0-2.72,1.9,7.88,7.88,0,0,0,0,4.71,2.88,2.88,0,0,0,1,1.44,3.18,3.18,0,0,0,3.36,0,3,3,0,0,0,1-1.44,8.1,8.1,0,0,0,0-4.71,3,3,0,0,0-1-1.42A2.83,2.83,0,0,0,172.36,193.92Z" style="fill:#fff"/><path d="M193.3,191.32a6.49,6.49,0,0,1,4.94,1.79,8.35,8.35,0,0,1,0,10.15A6.53,6.53,0,0,1,193.3,205h-5.82V191.32Zm-.35,11a3,3,0,0,0,2.55-1.05,6.45,6.45,0,0,0,0-6.22,3,3,0,0,0-2.55-1h-1.89v8.32Z" style="fill:#fff"/><path d="M202.41,205V191.32H213.1v2.76H206v2.79h5.66v2.6H206v2.81h7.38V205Z" style="fill:#fff"/><path d="M74.61,226.36H70.93l-1-3.1h-4.7l-1,3.1H60.7l4.82-13.72H69.8Zm-8.67-5.53h3.37l-1.69-5.55Z" style="fill:#fff"/><path d="M87.88,222.43a5.53,5.53,0,0,1-1.27,2.36,5.14,5.14,0,0,1-2.08,1.35,7.81,7.81,0,0,1-2.66.43,7.31,7.31,0,0,1-3.6-.84,5.67,5.67,0,0,1-2.33-2.42,9.37,9.37,0,0,1,0-7.62,5.67,5.67,0,0,1,2.33-2.42,7.26,7.26,0,0,1,3.58-.84,8.3,8.3,0,0,1,2.64.4,5.17,5.17,0,0,1,2,1.24,4.72,4.72,0,0,1,1.19,2.14l-3.14,1.27a2.87,2.87,0,0,0-.95-1.77,2.75,2.75,0,0,0-1.65-.47,3,3,0,0,0-1.69.47,3.06,3.06,0,0,0-1.11,1.43,6.44,6.44,0,0,0-.38,2.36,7,7,0,0,0,.35,2.35,2.79,2.79,0,0,0,1.07,1.43,3.13,3.13,0,0,0,1.78.48,2.65,2.65,0,0,0,1.7-.55,2.83,2.83,0,0,0,.94-1.69Z" style="fill:#fff"/><path d="M101.42,212.64v2.76H96.94v11H93.37v-11H88.88v-2.76Z" style="fill:#fff"/><path d="M107,212.64v13.72h-3.58V212.64Z" style="fill:#fff"/><path d="M122.63,212.64l-4.87,13.72h-4.2l-4.89-13.72h3.77l2.51,8.29.75,2.71.73-2.66,2.56-8.34Z" style="fill:#fff"/><path d="M127.85,212.64v13.72h-3.58V212.64Z" style="fill:#fff"/><path d="M136.71,212.64a6.54,6.54,0,0,1,4.94,1.78,8.39,8.39,0,0,1,0,10.15,6.51,6.51,0,0,1-4.94,1.79h-5.83V212.64Zm-.36,11a3,3,0,0,0,2.55-1,6.45,6.45,0,0,0,0-6.22,3,3,0,0,0-2.55-1h-1.89v8.32Z" style="fill:#fff"/><path d="M157.79,226.36h-3.68l-1-3.1h-4.7l-1,3.1h-3.6l4.83-13.72H153Zm-8.67-5.53h3.37l-1.68-5.55Z" style="fill:#fff"/><path d="M165.22,212.64a6.54,6.54,0,0,1,4.94,1.78,8.39,8.39,0,0,1,0,10.15,6.51,6.51,0,0,1-4.94,1.79H159.4V212.64Zm-.35,11a3,3,0,0,0,2.54-1,6.45,6.45,0,0,0,0-6.22,3,3,0,0,0-2.54-1H163v8.32Z" style="fill:#fff"/><path d="M174.33,226.36V212.64H185v2.76H177.9v2.79h5.66v2.6H177.9v2.81h7.39v2.76Z" style="fill:#fff"/><path d="M192.82,212.43a9.1,9.1,0,0,1,3.38.59,7.29,7.29,0,0,1,2.54,1.74L197,217.07a6.16,6.16,0,0,0-1.93-1.41,5.59,5.59,0,0,0-2.34-.47,3.82,3.82,0,0,0-1.24.17,1.33,1.33,0,0,0-.69.46,1.08,1.08,0,0,0-.21.66.89.89,0,0,0,.41.74,3.68,3.68,0,0,0,1.32.51l2.31.52a6.55,6.55,0,0,1,3,1.39,3.22,3.22,0,0,1,1,2.44,4,4,0,0,1-.75,2.46,4.59,4.59,0,0,1-2.06,1.52,8.18,8.18,0,0,1-3,.51,11.13,11.13,0,0,1-2.62-.3,8.7,8.7,0,0,1-2.25-.86,7.31,7.31,0,0,1-1.69-1.29l1.73-2.4a5.46,5.46,0,0,0,1.28,1.08,7.09,7.09,0,0,0,1.66.73,6.45,6.45,0,0,0,1.84.27,4.22,4.22,0,0,0,1.22-.14,1.35,1.35,0,0,0,.72-.44,1.07,1.07,0,0,0,.23-.68,1,1,0,0,0-.31-.74,2.73,2.73,0,0,0-1.19-.51l-2.54-.56a9.67,9.67,0,0,1-2.07-.72,3.59,3.59,0,0,1-1.42-1.21,3.25,3.25,0,0,1-.52-1.9,3.85,3.85,0,0,1,.71-2.3,4.76,4.76,0,0,1,2-1.59A7.9,7.9,0,0,1,192.82,212.43Z" style="fill:#fff"/><path d="M170.44,59.77h-8v-3a3.6,3.6,0,1,0-7.19,0v3h-24.6v-3a3.6,3.6,0,1,0-7.2,0v3H98.83v-3a3.6,3.6,0,1,0-7.19,0v3h-8a11.92,11.92,0,0,0-11.9,11.91V145a11.92,11.92,0,0,0,11.9,11.9h86.82a11.92,11.92,0,0,0,11.9-11.9V71.68A11.92,11.92,0,0,0,170.44,59.77ZM83.62,67h8v3a3.6,3.6,0,0,0,7.19,0V67h24.6v3a3.6,3.6,0,0,0,7.2,0V67h24.6v3a3.6,3.6,0,0,0,7.19,0V67h8a4.71,4.71,0,0,1,4.71,4.71V83.77H78.91V71.68A4.71,4.71,0,0,1,83.62,67Zm86.82,82.77H83.62A4.72,4.72,0,0,1,78.91,145V91h96.24V145A4.72,4.72,0,0,1,170.44,149.74Z" style="fill:#fff"/><path d="M104.31,100H93.77a3.6,3.6,0,1,0,0,7.2h10.54a3.6,3.6,0,0,0,0-7.2Z" style="fill:#fff"/><path d="M104.31,117.12H93.77a3.6,3.6,0,0,0,0,7.2h10.54a3.6,3.6,0,0,0,0-7.2Z" style="fill:#fff"/><path d="M104.31,134.22H93.77a3.6,3.6,0,0,0,0,7.2h10.54a3.6,3.6,0,0,0,0-7.2Z" style="fill:#fff"/><path d="M132.12,100H121.57a3.6,3.6,0,1,0,0,7.2h10.55a3.6,3.6,0,0,0,0-7.2Z" style="fill:#fff"/><path d="M132.12,117.12H121.57a3.6,3.6,0,0,0,0,7.2h10.55a3.6,3.6,0,0,0,0-7.2Z" style="fill:#fff"/><path d="M132.12,134.22H121.57a3.6,3.6,0,0,0,0,7.2h10.55a3.6,3.6,0,0,0,0-7.2Z" style="fill:#fff"/><path d="M159.92,100H149.37a3.6,3.6,0,0,0,0,7.2h10.55a3.6,3.6,0,0,0,0-7.2Z" style="fill:#fff"/><path d="M159.92,117.12H149.37a3.6,3.6,0,0,0,0,7.2h10.55a3.6,3.6,0,0,0,0-7.2Z" style="fill:#fff"/><path d="M159.92,134.22H149.37a3.6,3.6,0,0,0,0,7.2h10.55a3.6,3.6,0,0,0,0-7.2Z" style="fill:#fff"/></g></g></svg>