<svg xmlns="http://www.w3.org/2000/svg" viewBox="0 0 259.96 259.96"><g id="Capa_2" data-name="Capa 2"><g id="Capa_1-2" data-name="Capa 1"><rect width="259.96" height="259.96" rx="7.4" style="fill:#004884"/><path d="M79.38,191.32l-4.87,13.73h-4.2l-4.88-13.73h3.76l2.52,8.3.75,2.7.72-2.66,2.56-8.34Z" style="fill:#fabb09"/><path d="M81,205.05V191.32H91.71v2.77H84.6v2.78h5.66v2.6H84.6v2.81H92v2.77Z" style="fill:#fabb09"/><path d="M106.52,191.32v13.73h-4l-4.26-7.43-1-2h0l.09,2.54v6.93H94.15V191.32h4l4.26,7.42,1,2h0l-.08-2.53v-6.93Z" style="fill:#fabb09"/><path d="M121.1,191.32v2.77h-4.47v11h-3.58v-11h-4.49v-2.77Z" style="fill:#fabb09"/><path d="M133.89,205.05h-3.68l-1-3.1h-4.7l-1,3.1H120l4.82-13.73h4.29Zm-8.67-5.54h3.37L126.9,194Z" style="fill:#fabb09"/><path d="M147.87,191.32v13.73h-4l-4.26-7.43-1-2h0l.08,2.54v6.93h-3.16V191.32h4l4.27,7.42,1,2h0l-.09-2.53v-6.93Z" style="fill:#fabb09"/><path d="M154.48,191.32v13.73H150.9V191.32Z" style="fill:#fabb09"/><path d="M161.09,202.28H168v2.77H157.51V191.32h3.58Z" style="fill:#fabb09"/><path d="M173.61,202.28h6.88v2.77H170V191.32h3.58Z" style="fill:#fabb09"/><path d="M195,205.05h-3.68l-1-3.1h-4.7l-1,3.1h-3.6l4.82-13.73h4.29Zm-8.67-5.54h3.37L188,194Z" style="fill:#fabb09"/><path d="M99.58,212.64l-4.86,13.72h-4.2l-4.89-13.72h3.76l2.52,8.3.75,2.7.73-2.66,2.55-8.34Z" style="fill:#fabb09"/><path d="M104.8,212.64v13.72h-3.57V212.64Z" style="fill:#fabb09"/><path d="M114.39,212.64a5.73,5.73,0,0,1,3.82,1.15,3.81,3.81,0,0,1,1.36,3.07,3.88,3.88,0,0,1-1.35,3.2,5.84,5.84,0,0,1-3.81,1.1l-.33.19h-2.72v5h-3.52V212.64Zm-.5,6.17a2.42,2.42,0,0,0,1.56-.41,1.6,1.6,0,0,0,.52-1.33,1.55,1.55,0,0,0-.52-1.31,2.42,2.42,0,0,0-1.56-.42h-2.53v3.47Zm2.1.75,4.39,6.8h-3.95l-3.51-6Z" style="fill:#fabb09"/><path d="M133.55,212.64v2.76h-4.48v11H125.5v-11H121v-2.76Z" style="fill:#fabb09"/><path d="M147.58,212.64v8.13a5.67,5.67,0,0,1-1.55,4.36,8,8,0,0,1-9.16,0,5.68,5.68,0,0,1-1.56-4.36v-8.13h3.6v8.19a3.26,3.26,0,0,0,.64,2.21,2.39,2.39,0,0,0,1.9.72,2.42,2.42,0,0,0,1.92-.72,3.26,3.26,0,0,0,.64-2.21v-8.19Z" style="fill:#fabb09"/><path d="M162.33,226.36h-3.68l-1-3.1H153l-1,3.1h-3.59l4.82-13.72h4.28Zm-8.67-5.53H157l-1.69-5.55Z" style="fill:#fabb09"/><path d="M167.51,223.6h6.88v2.76H163.93V212.64h3.58Z" style="fill:#fabb09"/><path d="M170,54.75H87.9A11.26,11.26,0,0,0,76.66,66v74A11.25,11.25,0,0,0,87.9,151.17h26.39l6.24,7.13a3.07,3.07,0,0,0,2.3,1h26.56a3,3,0,0,0,3-2.32l1.46-5.85H170a11.25,11.25,0,0,0,11.24-11.23V66A11.25,11.25,0,0,0,170,54.75ZM82.79,66a5.11,5.11,0,0,1,5.11-5.11h62.71V71.09H82.79ZM151.2,136.4,147,153.21H124.22l-8.67-9.91a5.12,5.12,0,0,1,0-6.73l4.22-4.82v4.1a3.07,3.07,0,0,0,6.13,0V105.21a3.07,3.07,0,1,1,6.13,0v19.2a3.06,3.06,0,0,0,2,2.88l15.22,5.48a3.07,3.07,0,0,1,1.93,3.63Zm23.93,3.54A5.11,5.11,0,0,1,170,145H155.36l1.79-7.16A9.16,9.16,0,0,0,151.34,127l-13.19-4.75V105.21a9.19,9.19,0,1,0-18.38,0v17.23l-8.83,10.1a11.27,11.27,0,0,0-1.55,12.5H87.9a5.11,5.11,0,0,1-5.11-5.1V77.22h92.34Zm0-68.85H156.74V60.88H170A5.11,5.11,0,0,1,175.13,66Z" style="fill:#fabb09"/><path d="M110.58,108.27a3.06,3.06,0,0,0,3.06-3.06,15.32,15.32,0,1,1,30.64,0,3.07,3.07,0,0,0,6.13,0,21.45,21.45,0,1,0-42.9,0A3.06,3.06,0,0,0,110.58,108.27Z" style="fill:#fabb09"/></g></g></svg>