<svg xmlns="http://www.w3.org/2000/svg" viewBox="0 0 259.96 259.96"><g id="Capa_2" data-name="Capa 2"><g id="Capa_1-2" data-name="Capa 1"><rect width="259.96" height="259.96" rx="7.4" style="fill:#2a9ebd"/><path d="M60.91,191.32v13.73H57.34V191.32Z" style="fill:#fff"/><path d="M76.32,191.32v13.73h-4l-4.26-7.43-1-2h0l.08,2.54v6.93H64V191.32h4l4.27,7.42,1,2h0l-.09-2.53v-6.93Z" style="fill:#fff"/><path d="M90,194.09H82.94V197h5.65v2.76H82.94v5.29H79.36V191.32H90Z" style="fill:#fff"/><path d="M98.14,191.11a7.27,7.27,0,0,1,3.59.84,5.73,5.73,0,0,1,2.32,2.43,9.34,9.34,0,0,1,0,7.61,5.71,5.71,0,0,1-2.32,2.42,8.11,8.11,0,0,1-7.19,0A5.67,5.67,0,0,1,92.21,202a9.34,9.34,0,0,1,0-7.61A5.7,5.7,0,0,1,94.54,192,7.31,7.31,0,0,1,98.14,191.11Zm0,2.81a2.83,2.83,0,0,0-1.68.48,2.86,2.86,0,0,0-1,1.42,7.88,7.88,0,0,0,0,4.71,2.88,2.88,0,0,0,1,1.44,2.83,2.83,0,0,0,1.68.48,2.79,2.79,0,0,0,1.67-.48,2.92,2.92,0,0,0,1-1.44,7.88,7.88,0,0,0,0-4.71,2.91,2.91,0,0,0-1-1.42A2.79,2.79,0,0,0,98.14,193.92Z" style="fill:#fff"/><path d="M113.86,191.32a5.79,5.79,0,0,1,3.82,1.15,3.83,3.83,0,0,1,1.36,3.07,3.88,3.88,0,0,1-1.35,3.2,5.85,5.85,0,0,1-3.81,1.11l-.33.18h-2.72v5h-3.52V191.32Zm-.5,6.18a2.42,2.42,0,0,0,1.56-.42,1.6,1.6,0,0,0,.52-1.33,1.57,1.57,0,0,0-.52-1.31,2.42,2.42,0,0,0-1.56-.42h-2.53v3.48Zm2.1.75,4.39,6.8H115.9l-3.51-6Z" style="fill:#fff"/><path d="M137.53,191.32v13.73h-3.16v-6.31l.1-4.22h0L131,205.05h-2.89l-3.39-10.53h0l.1,4.22v6.31h-3.18V191.32h5.09l2.17,7,.77,2.91h0l.79-2.89,2.14-7Z" style="fill:#fff"/><path d="M153,205.05h-3.68l-1-3.1h-4.7l-1,3.1h-3.6L144,191.32h4.29Zm-8.67-5.54h3.37L146.05,194Z" style="fill:#fff"/><path d="M166.31,201.12a5.54,5.54,0,0,1-1.27,2.36,5.28,5.28,0,0,1-2.08,1.35,8,8,0,0,1-2.66.42,7.31,7.31,0,0,1-3.6-.84,5.67,5.67,0,0,1-2.33-2.42,9.34,9.34,0,0,1,0-7.61A5.7,5.7,0,0,1,156.7,192a7.29,7.29,0,0,1,3.58-.84,8.21,8.21,0,0,1,2.64.41,5.17,5.17,0,0,1,2,1.24,4.6,4.6,0,0,1,1.18,2.14L163,196.17a2.91,2.91,0,0,0-.94-1.77,2.74,2.74,0,0,0-1.66-.48,2.85,2.85,0,0,0-2.79,1.9,6.23,6.23,0,0,0-.39,2.36,6.67,6.67,0,0,0,.36,2.35,2.81,2.81,0,0,0,1.07,1.44,3.13,3.13,0,0,0,1.78.48,2.68,2.68,0,0,0,1.69-.55,2.92,2.92,0,0,0,.95-1.7Z" style="fill:#fff"/><path d="M171.88,191.32v13.73h-3.57V191.32Z" style="fill:#fff"/><path d="M181.08,191.11a7.23,7.23,0,0,1,3.58.84,5.67,5.67,0,0,1,2.32,2.43,9.34,9.34,0,0,1,0,7.61,5.65,5.65,0,0,1-2.32,2.42,7.23,7.23,0,0,1-3.58.84,7.31,7.31,0,0,1-3.6-.84,5.67,5.67,0,0,1-2.33-2.42,9.34,9.34,0,0,1,0-7.61,5.7,5.7,0,0,1,2.33-2.43A7.31,7.31,0,0,1,181.08,191.11Zm0,2.81a2.88,2.88,0,0,0-1.69.48,2.92,2.92,0,0,0-1,1.42,8.1,8.1,0,0,0,0,4.71,2.94,2.94,0,0,0,1,1.44,2.88,2.88,0,0,0,1.69.48,2.82,2.82,0,0,0,1.67-.48,3,3,0,0,0,1-1.44,8.1,8.1,0,0,0,0-4.71,3,3,0,0,0-1-1.42A2.82,2.82,0,0,0,181.08,193.92Zm-.23-7.3H184L182.16,190h-2.58Z" style="fill:#fff"/><path d="M202.62,191.32v13.73h-4l-4.26-7.43-1-2h0l.08,2.54v6.93h-3.16V191.32h4l4.26,7.42,1,2h0l-.08-2.53v-6.93Z" style="fill:#fff"/><path d="M66.29,226.36H62.61l-1-3.1H57l-1,3.1H52.38l4.82-13.72h4.29Zm-8.67-5.53H61l-1.69-5.55Z" style="fill:#fff"/><path d="M71.47,223.6h6.88v2.76H67.89V212.64h3.58Z" style="fill:#fff"/><path d="M98.05,222.43a5.53,5.53,0,0,1-1.27,2.36,5.14,5.14,0,0,1-2.08,1.35,7.81,7.81,0,0,1-2.66.43,7.31,7.31,0,0,1-3.6-.84,5.67,5.67,0,0,1-2.33-2.42,9.37,9.37,0,0,1,0-7.62,5.67,5.67,0,0,1,2.33-2.42,7.26,7.26,0,0,1,3.58-.84,8,8,0,0,1,2.64.41,5.16,5.16,0,0,1,2,1.23,4.7,4.7,0,0,1,1.19,2.15l-3.14,1.26a2.86,2.86,0,0,0-.95-1.76,2.69,2.69,0,0,0-1.65-.48,3,3,0,0,0-1.7.48,3,3,0,0,0-1.1,1.42A6.44,6.44,0,0,0,89,219.5a7,7,0,0,0,.35,2.35,2.86,2.86,0,0,0,1.07,1.44,3.21,3.21,0,0,0,1.78.47,2.65,2.65,0,0,0,1.7-.55,2.8,2.8,0,0,0,.94-1.69Z" style="fill:#fff"/><path d="M103.62,212.64v13.72H100V212.64Z" style="fill:#fff"/><path d="M118.66,212.64v8.13a5.71,5.71,0,0,1-1.55,4.36,8,8,0,0,1-9.16,0,5.68,5.68,0,0,1-1.56-4.36v-8.13H110v8.19a3.26,3.26,0,0,0,.64,2.21,2.39,2.39,0,0,0,1.9.72,2.42,2.42,0,0,0,1.92-.72,3.26,3.26,0,0,0,.64-2.21v-8.19Z" style="fill:#fff"/><path d="M127.24,212.64a6.49,6.49,0,0,1,4.94,1.79,8.35,8.35,0,0,1,0,10.15,6.53,6.53,0,0,1-4.94,1.78h-5.82V212.64Zm-.35,11a3,3,0,0,0,2.55-1,6.45,6.45,0,0,0,0-6.22,3,3,0,0,0-2.55-1H125v8.32Z" style="fill:#fff"/><path d="M148.33,226.36h-3.68l-1-3.1H139l-1,3.1h-3.6l4.82-13.72h4.29Zm-8.67-5.53H143l-1.69-5.55Z" style="fill:#fff"/><path d="M155.76,212.64a6.51,6.51,0,0,1,4.94,1.79,8.39,8.39,0,0,1,0,10.15,6.54,6.54,0,0,1-4.94,1.78h-5.83V212.64Zm-.36,11a3,3,0,0,0,2.55-1,6.45,6.45,0,0,0,0-6.22,3,3,0,0,0-2.55-1h-1.89v8.32Z" style="fill:#fff"/><path d="M176.84,226.36h-3.68l-.95-3.1h-4.7l-1,3.1h-3.6l4.83-13.72H172Zm-8.67-5.53h3.37l-1.68-5.55Z" style="fill:#fff"/><path d="M190.82,212.64v13.72h-4l-4.27-7.42-1-2h0l.09,2.54v6.92h-3.17V212.64h4l4.26,7.42,1,2h0l-.08-2.54v-6.92Z" style="fill:#fff"/><path d="M200,212.43a7.27,7.27,0,0,1,3.59.84,5.71,5.71,0,0,1,2.32,2.42,9.37,9.37,0,0,1,0,7.62,5.71,5.71,0,0,1-2.32,2.42,8.11,8.11,0,0,1-7.19,0,5.67,5.67,0,0,1-2.33-2.42,9.37,9.37,0,0,1,0-7.62,5.67,5.67,0,0,1,2.33-2.42A7.31,7.31,0,0,1,200,212.43Zm0,2.81a2.7,2.7,0,0,0-2.72,1.9,7.88,7.88,0,0,0,0,4.71,2.88,2.88,0,0,0,1,1.44,2.83,2.83,0,0,0,4.38-1.44,7.88,7.88,0,0,0,0-4.71,2.66,2.66,0,0,0-2.7-1.9Z" style="fill:#fff"/><path d="M130,52.18a52.48,52.48,0,1,0,52.48,52.48A52.54,52.54,0,0,0,130,52.18Zm42.92,52.48A42.92,42.92,0,1,1,130,61.74,43,43,0,0,1,172.9,104.66Z" style="fill:#fff"/><path d="M130,95.5a4.78,4.78,0,0,0-4.78,4.78v26a4.78,4.78,0,0,0,9.56,0v-26A4.79,4.79,0,0,0,130,95.5Z" style="fill:#fff"/><path d="M130,79.63a6.2,6.2,0,1,0,6.19,6.2A6.21,6.21,0,0,0,130,79.63Z" style="fill:#fff"/></g></g></svg>