<svg xmlns="http://www.w3.org/2000/svg" viewBox="0 0 404.53 235.99"><defs><style>.cls-1{fill:#e0081a;}</style></defs><title>logoINSv</title><g id="Capa_2" data-name="Capa 2"><g id="Capa_1-2" data-name="Capa 1"><path d="M114.39,60.94c0-2.07-.8-2.77-3.3-2.77h-.8v-.85h1.49c1.12,0,5.37.16,6.12.16s3.25-.1,4.9-.16h1.49v.85h-.85c-2.45,0-3.25.69-3.25,2.77V85.09c0,2.08.8,2.77,3.3,2.77h.8v.85H122.8c-.91,0-4.74-.16-6.12-.16-1.65,0-3.3.11-4.95.16h-1.44v-.85h.8c2.5,0,3.3-.69,3.3-2.77Z"/><path d="M133,66.17a5.4,5.4,0,0,0-3.24-1.92H129v-.68h.64c.3,0,3.79.13,4.13.13.56,0,2.17-.13,2.51-.13H137l16.22,17.66V67.31c0-2.21-1-3.07-3.45-3.07H149v-.68h.77l4,.13c.42,0,2.85-.13,3.32-.13h.47l0,.68c-2.26.17-2.85.76-2.85,2.73V89h-.77L134.7,67.91V83.74c0,3.32.77,4.21,3.58,4.21H139v.72h-.81c-.6,0-3.53-.13-4.21-.13-.38,0-3.11.13-3.7.13h-.68V88c2.85-.25,3.45-.72,3.45-2.77Z"/><path d="M162.49,82.85a6.62,6.62,0,0,0,2.43,3.28,9,9,0,0,0,5.49,1.66c3.66,0,6.13-1.91,6.13-4.68,0-2-1.19-3.15-5.62-5.24-4.26-2-5.32-3.06-6.21-3.91a5.93,5.93,0,0,1-1.87-4.38c0-3.92,3.19-6.51,8-6.51a19.56,19.56,0,0,1,4.72.64,8.28,8.28,0,0,0,1.75.25.59.59,0,0,0,.64-.34h.73l.08,5.36h-.59a5.95,5.95,0,0,0-6.64-4.72c-3.06,0-5.06,1.45-5.06,3.62,0,1.87,1.15,2.94,5.24,4.81,5.23,2.42,8.38,4.59,8.38,8.6,0,4.6-3.74,7.7-9.32,7.7a20.13,20.13,0,0,1-4.51-.55,9.27,9.27,0,0,0-1.53-.21,1.09,1.09,0,0,0-1,.47H163l-.09-.6c-.34-2-.72-3.79-1-5Z"/><path d="M193.82,65.36h-5.15c-3,0-3.79.72-4,3.74h-.73l.13-6h.68a3.38,3.38,0,0,0,1,.47,4.46,4.46,0,0,0,1.15.13h18.6a3.07,3.07,0,0,0,2.13-.59h.68l.13,6h-.72c-.26-3-1-3.74-4-3.74h-5.15V85.74c0,1.41.43,2.21,2.68,2.21h.64v.72h-1.23c-.68,0-4.13-.13-4.9-.13-.55,0-2.64.13-4,.13H190.5V88h.76c1.91,0,2.55-.55,2.55-2.21Z"/><path d="M215.7,66.46c0-1.66-.64-2.21-2.64-2.21h-.64v-.68h1.19c.89,0,4.3.13,4.9.13s2.6-.09,3.92-.13h1.19v.68h-.68c-2,0-2.6.55-2.6,2.21V85.78c0,1.66.64,2.21,2.64,2.21h.64v.68h-1.19c-.72,0-3.79-.13-4.9-.13-1.32,0-2.64.09-4,.13h-1.15V88h.64c2,0,2.64-.56,2.64-2.21Z"/><path d="M237.57,65.36h-5.15c-3,0-3.79.72-4,3.74h-.72l.13-6h.68a3.35,3.35,0,0,0,1,.47,4.45,4.45,0,0,0,1.15.13h18.6a3.08,3.08,0,0,0,2.13-.59H252l.13,6h-.73c-.25-3-1-3.74-4-3.74h-5.15V85.74c0,1.41.43,2.21,2.68,2.21h.64v.72h-1.23c-.68,0-4.12-.13-4.89-.13-.55,0-2.64.13-4,.13h-1.19V88H235c1.92,0,2.55-.55,2.55-2.21Z"/><path d="M259.28,66.46c0-1.7-.64-2.21-2.64-2.21H256v-.68h1.19c.72,0,4.13.13,4.9.13,1,0,3.15-.13,4-.13h1.19v.68h-.68c-2,0-2.64.55-2.64,2.21V80.68c0,4.93,2.26,7.15,7.24,7.15,4.77,0,7.45-2.43,7.45-6.81V67c0-2.21-.51-2.73-2.68-2.73h-.72v-.68H276l4.13.13c1.11,0,2.3-.13,3.28-.13h1v.68h-.85c-1.92,0-2.64.55-2.64,2.09V79.87c0,7.32-5,9.15-11,9.15-2.72,0-10.68-.59-10.68-8.47Z"/><path d="M298.13,65.36H293c-3,0-3.79.72-4,3.74h-.72l.13-6H289a3.39,3.39,0,0,0,1,.47,4.46,4.46,0,0,0,1.15.13h18.6a3.08,3.08,0,0,0,2.13-.59h.68l.13,6H312c-.26-3-1-3.74-4-3.74h-5.15V85.74c0,1.41.42,2.21,2.68,2.21h.64v.72h-1.23c-.68,0-4.13-.13-4.9-.13-.55,0-2.64.13-4,.13h-1.19V88h.76c1.91,0,2.55-.55,2.55-2.21Z"/><path d="M344,76c0,7.7-5.49,13-13.32,13s-13.24-5.23-13.24-12.94,5.49-13,13.15-13C339.34,63.1,344,69.1,344,76Zm-19.66-8.34c-1,1.62-1.66,5.24-1.66,8.77,0,3.75.89,11.41,8.34,11.41a6.64,6.64,0,0,0,6.13-3.28c.94-1.62,1.62-5.15,1.62-8.6,0-7.36-3-11.62-8.21-11.62A6.6,6.6,0,0,0,324.36,67.65Z"/><path d="M114.92,105c-1.44-1.49-3-2.39-4-2.39h-1v-.85h.8c.37,0,4.74.16,5.16.16.69,0,2.71-.16,3.14-.16h.85l20.27,22.08v-17.4c0-2.77-1.23-3.83-4.31-3.83h-.91v-.85h1c.11,0,4.68.16,5.06.16.53,0,3.56-.16,4.15-.16h.59l.05.85c-2.82.21-3.56,1-3.56,3.4v27.51h-1L117,107.19V127c0,4.15,1,5.27,4.47,5.27h.91v.91h-1c-.75,0-4.42-.16-5.27-.16-.48,0-3.89.16-4.63.16h-.85v-.91c3.56-.32,4.31-.9,4.31-3.46Z"/><path d="M162.35,107.59h1.45l8.26,20.51c1.74,4.29,2.94,4.29,4.38,4.29v.73h-1.11c-.68,0-4-.13-4.68-.13-1.19,0-2,.13-3.53.13H165.8v-.73c1.1,0,2.21,0,2.21-1.45a6.39,6.39,0,0,0-.59-2.38l-1.92-4.64h-8l-1.66,4.26a7.49,7.49,0,0,0-.55,2.47c0,1.74,1.66,1.74,2.6,1.74v.73H157c-.51,0-2.89-.13-3.62-.13-.89,0-1.79.13-2.68.13h-1v-.73c2.68,0,3.19-.64,5.19-5.7Zm-.89,6.21-3.36,8.6h6.77Z"/><path d="M204.36,128a42.16,42.16,0,0,0-1.53,5,52.05,52.05,0,0,1-6.9.43A27.3,27.3,0,0,1,187,132a11.44,11.44,0,0,1-7.36-11.19,12.72,12.72,0,0,1,4.85-10.26c2.6-2.09,5.66-3,10.13-3,.51,0,2,.09,3.58.13s3.11.17,3.66.17h1.87c0,1.49,0,2,0,3.19v2.3H203a3.38,3.38,0,0,0-1.53-3.06c-1-.77-3.36-1.24-6-1.24-7.11,0-10.56,3.66-10.56,11.2s4.21,12,11.11,12a9.68,9.68,0,0,0,5.28-1.28,5.33,5.33,0,0,0,2.38-3Z"/><path d="M212.45,110.91c0-1.66-.64-2.21-2.64-2.21h-.64V108h1.19c.89,0,4.3.13,4.89.13s2.6-.08,3.92-.13h1.19v.68h-.68c-2,0-2.6.55-2.6,2.21v19.32c0,1.66.64,2.21,2.64,2.21h.64v.68h-1.19c-.72,0-3.79-.13-4.9-.13-1.32,0-2.64.09-4,.13h-1.15v-.68h.64c2,0,2.64-.55,2.64-2.21Z"/><path d="M251.9,120.44c0,7.71-5.49,13-13.32,13s-13.23-5.23-13.23-12.94,5.49-13,13.15-13C247.22,107.55,251.9,113.55,251.9,120.44Zm-19.66-8.34c-1,1.62-1.66,5.23-1.66,8.77,0,3.74.89,11.4,8.34,11.4a6.64,6.64,0,0,0,6.13-3.28c.94-1.62,1.62-5.15,1.62-8.6,0-7.36-3-11.62-8.21-11.62A6.6,6.6,0,0,0,232.24,112.1Z"/><path d="M260.59,110.61a5.42,5.42,0,0,0-3.24-1.92h-.77V108h.64c.3,0,3.79.13,4.13.13.55,0,2.17-.13,2.51-.13h.68l16.21,17.66V111.76c0-2.21-1-3.07-3.45-3.07h-.72V108h.76l4,.13c.43,0,2.86-.13,3.32-.13h.47l0,.68c-2.26.17-2.85.77-2.85,2.73v22h-.76l-19.37-21.06v15.83c0,3.32.76,4.21,3.57,4.21h.72v.73h-.81c-.59,0-3.53-.13-4.21-.13-.38,0-3.11.13-3.7.13h-.68v-.73c2.85-.25,3.45-.72,3.45-2.76Z"/><path d="M300.3,107.59h1.45L310,128.1c1.75,4.29,2.94,4.29,4.38,4.29v.73h-1.11c-.68,0-4-.13-4.68-.13-1.19,0-2,.13-3.53.13h-1.32v-.73c1.1,0,2.21,0,2.21-1.45a6.36,6.36,0,0,0-.6-2.38l-1.91-4.64h-8l-1.66,4.26a7.49,7.49,0,0,0-.55,2.47c0,1.74,1.66,1.74,2.6,1.74v.73h-.9c-.51,0-2.89-.13-3.62-.13-.89,0-1.79.13-2.68.13h-1v-.73c2.68,0,3.19-.64,5.19-5.7Zm-.89,6.21L296,122.4h6.77Z"/><path d="M322,110.91c0-1.66-.64-2.21-2.64-2.21h-.64V108h1.19c.72,0,4.3.13,4.89.13s2.64-.13,4-.13h1.19l0,.68h-.64c-2,0-2.64.55-2.64,2.21V129.8c0,1.45.68,1.83,3.23,1.83,4,0,5.45-.77,7.24-3.87h.73L336,133.13h-.81c-.85,0-6.26-.13-9.71-.13-2,0-5.15.13-5.83.13h-1l0-.68h.64c2,0,2.64-.55,2.64-2.17Z"/><path d="M354.52,111c0-1.66-.6-2.17-2.6-2.17h-.81v-.77c.42,0,2.89-.21,5.58-.38,1.79-.13,3.74-.21,4.89-.21,7.15,0,11.28,1.23,14.39,4.3a10.47,10.47,0,0,1,2.93,7.57,13.87,13.87,0,0,1-3.91,9.79c-4,4-9.07,4-12.09,4-.94,0-3.41-.13-5.11-.13-.76,0-4.72.13-5.62.13h-1v-.73h.77c2,0,2.6-.51,2.6-2.17Zm4.68,18.6c0,1.83.68,2.21,3.87,2.21,7.49,0,10.68-3.32,10.68-11.07,0-12-8.55-12-11-12-1.41,0-1.92.09-3.58.21Z"/><path d="M386.79,110.86c0-1.66-.64-2.17-2.64-2.17h-.64V108h1.66c1.15,0,7.36.13,7.41.13.89,0,6.81-.13,8.08-.13h1.7l.09,5.49h-.68c-.13-2.85-1.41-4-4.38-4h-6v9.66h5.15a3.06,3.06,0,0,0,3.4-2.94l.76,0v7.62H400c-.34-2.38-1.57-3.32-4.55-3.32h-4.09v8.81a1.92,1.92,0,0,0,2.17,2.17h4.26a6.1,6.1,0,0,0,6-3.79h.77l-1.79,5.37c-1.23,0-7.11-.13-9.06-.13-1.32,0-7.66.09-9.11.13h-1.11v-.73h.68c2,0,2.64-.55,2.64-2.21Z"/><path d="M111.41,170.31a8.22,8.22,0,0,0,3,4.1,11.18,11.18,0,0,0,6.86,2.08c4.58,0,7.66-2.4,7.66-5.85,0-2.55-1.49-3.94-7-6.54-5.32-2.55-6.65-3.83-7.77-4.9a7.42,7.42,0,0,1-2.34-5.48c0-4.89,4-8.14,10-8.14a24.42,24.42,0,0,1,5.91.8,10.3,10.3,0,0,0,2.18.32.75.75,0,0,0,.8-.43h.91l.11,6.7H131a7.43,7.43,0,0,0-8.3-5.91c-3.83,0-6.33,1.81-6.33,4.52,0,2.34,1.44,3.67,6.54,6,6.54,3,10.48,5.75,10.48,10.75,0,5.75-4.68,9.63-11.65,9.63a25.15,25.15,0,0,1-5.64-.69,11.45,11.45,0,0,0-1.92-.27,1.36,1.36,0,0,0-1.28.59H112l-.11-.74c-.43-2.45-.91-4.74-1.28-6.28Z"/><path d="M150.17,152h1.45l8.26,20.51c1.75,4.3,2.94,4.3,4.39,4.3v.72h-1.11c-.68,0-4-.13-4.68-.13-1.19,0-2,.13-3.53.13h-1.32v-.72c1.11,0,2.21,0,2.21-1.45a6.39,6.39,0,0,0-.6-2.38l-1.92-4.64h-8l-1.66,4.25a7.48,7.48,0,0,0-.56,2.47c0,1.74,1.66,1.74,2.6,1.74v.72h-.9c-.51,0-2.89-.13-3.62-.13-.89,0-1.79.13-2.68.13h-1v-.72c2.68,0,3.19-.64,5.19-5.7Zm-.89,6.21-3.36,8.6h6.77Z"/><path d="M171.84,155.35c0-1.66-.64-2.21-2.64-2.21h-.64v-.68h1.19c.73,0,4.3.13,4.9.13s2.64-.13,4-.13h1.19l0,.68h-.64c-2,0-2.64.55-2.64,2.21v18.9c0,1.45.68,1.83,3.23,1.83,4,0,5.45-.76,7.23-3.87h.72l-1.79,5.36h-.81c-.85,0-6.25-.13-9.7-.13-2,0-5.15.13-5.83.13h-1l0-.68h.64c2,0,2.64-.55,2.64-2.17Z"/><path d="M193.84,155.35c0-1.7-.64-2.21-2.64-2.21h-.64v-.68h1.19c.72,0,4.13.13,4.9.13,1,0,3.15-.13,4-.13h1.19v.68h-.68c-2,0-2.64.55-2.64,2.21v14.21c0,4.94,2.26,7.15,7.23,7.15,4.77,0,7.45-2.43,7.45-6.81v-14c0-2.21-.51-2.72-2.68-2.72h-.72v-.68h.85l4.13.13c1.1,0,2.3-.13,3.27-.13h1v.68h-.85c-1.92,0-2.64.55-2.64,2.08v13.53c0,7.32-5,9.15-11,9.15-2.72,0-10.68-.6-10.68-8.47Z"/><path d="M226.1,155.48c0-1.66-.59-2.17-2.6-2.17h-.81v-.77c.43,0,2.89-.21,5.58-.38,1.79-.13,3.75-.21,4.9-.21,7.15,0,11.28,1.23,14.38,4.3a10.46,10.46,0,0,1,2.94,7.57,13.86,13.86,0,0,1-3.91,9.79c-4,4-9.06,4-12.09,4-.94,0-3.4-.13-5.11-.13-.76,0-4.72.13-5.62.13h-1v-.72h.76c2,0,2.6-.51,2.6-2.17Zm4.68,18.6c0,1.83.68,2.21,3.87,2.21,7.49,0,10.68-3.32,10.68-11.06,0-12-8.56-12-11-12-1.4,0-1.91.08-3.57.21Z"/><path d="M0,49.51c22-14.72,59.33-11.85,78.66,1.54V0H0Z"/><path d="M.84,85.5c0,26.09,55.56,21.5,77,35.63,0-12.25,0-22.88,0-31.21,0-9.4-17.45-29.69-43-29.69C12.54,60.24.84,72.07.84,85.5Z"/><path d="M0,198.45V236H78.66V199C44.29,218.41,12.41,205.68,0,198.45Z"/><path d="M38.75,135.09C23.26,132,7.22,127,0,120.61v42.86c0,11.87,15.88,24.11,42.1,24.11,11.35,0,35.41-2.64,35.41-23.18C77.51,143.61,50.12,137.36,38.75,135.09Z"/><circle class="cls-1" cx="39.33" cy="85.5" r="12.45"/></g></g></svg>