<svg xmlns="http://www.w3.org/2000/svg" width="225.319" height="47.061" viewBox="0 0 225.319 47.061">
  <g id="Logo_FPS" data-name="Logo FPS" transform="translate(871.149 -734.922)">
    <g id="Grupo_21" data-name="Grupo 21" transform="translate(-838.763 744.314)">
      <g id="Grupo_18" data-name="Grupo 18" transform="translate(0.789)">
        <g id="Grupo_17" data-name="Grupo 17">
          <path id="Trazado_21" data-name="Trazado 21" d="M-829.9,753h6.4v2.089h-4.489v7.379h4.195V764.5h-4.195v9.555H-829.9Z" transform="translate(829.901 -752.747)" fill="#fbbc08"/>
          <path id="Trazado_22" data-name="Trazado 22" d="M-811.9,763.367c0,7.88-2.158,10.919-4.871,10.919-2.8,0-4.666-3.723-4.666-10.8,0-6.987,2.008-10.76,4.943-10.76C-813.62,752.729-811.9,756.637-811.9,763.367Zm-7.543.141c0,4.334.671,8.667,2.814,8.667,2.166,0,2.735-4.6,2.735-8.733,0-3.93-.574-8.6-2.759-8.6C-818.774,754.84-819.445,759.233-819.445,763.508Z" transform="translate(829.336 -752.729)" fill="#fbbc08"/>
          <path id="Trazado_23" data-name="Trazado 23" d="M-808.74,774.054V753h1.809l3.087,9.875c.7,2.261,1.572,5.048,2.154,7.328h.05c-.153-3.313-.235-6.03-.235-9.669V753h1.728v21.057h-1.808l-3.2-10.128c-.682-2.127-1.4-4.515-2-7.147h-.049c.145,2.817.19,5.486.19,9.981v7.294Z" transform="translate(828.488 -752.747)" fill="#fbbc08"/>
          <path id="Trazado_24" data-name="Trazado 24" d="M-796.3,753.3a7.221,7.221,0,0,1,2.579-.406,4.936,4.936,0,0,1,3.946,1.585c1.306,1.413,2.269,4.137,2.269,8.533,0,4.816-.936,7.434-2.018,8.891a5.381,5.381,0,0,1-4.634,2.265,9.7,9.7,0,0,1-2.142-.207Zm1.907,18.791a3.411,3.411,0,0,0,.734.062c2.115,0,4.166-1.914,4.166-9.076,0-5.3-1.3-8.218-4-8.218a3.621,3.621,0,0,0-.9.115Z" transform="translate(827.657 -752.74)" fill="#fbbc08"/>
          <path id="Trazado_25" data-name="Trazado 25" d="M-775.624,763.367c0,7.88-2.158,10.919-4.871,10.919-2.795,0-4.666-3.723-4.666-10.8,0-6.987,2.009-10.76,4.943-10.76C-777.343,752.729-775.624,756.637-775.624,763.367Zm-7.543.141c0,4.334.672,8.667,2.815,8.667,2.165,0,2.734-4.6,2.734-8.733,0-3.93-.574-8.6-2.76-8.6C-782.5,754.84-783.168,759.233-783.168,763.508Z" transform="translate(826.914 -752.729)" fill="#fbbc08"/>
          <path id="Trazado_26" data-name="Trazado 26" d="M-768.261,753.3a7.221,7.221,0,0,1,2.579-.406,4.935,4.935,0,0,1,3.946,1.585c1.306,1.413,2.269,4.137,2.269,8.533,0,4.816-.936,7.434-2.018,8.891a5.381,5.381,0,0,1-4.634,2.265,9.706,9.706,0,0,1-2.143-.207Zm1.907,18.791a3.409,3.409,0,0,0,.733.062c2.116,0,4.167-1.914,4.167-9.076,0-5.3-1.3-8.218-4-8.218a3.621,3.621,0,0,0-.9.115Z" transform="translate(825.785 -752.74)" fill="#fbbc08"/>
          <path id="Trazado_27" data-name="Trazado 27" d="M-750.232,764.048h-4.21v7.917h4.8v2.089h-6.714V753h6.4v2.089h-4.489v6.929h4.21Z" transform="translate(824.99 -752.747)" fill="#fbbc08"/>
          <path id="Trazado_28" data-name="Trazado 28" d="M-742.686,753.3a8.938,8.938,0,0,1,2.787-.406,4.528,4.528,0,0,1,3.721,1.547,6.941,6.941,0,0,1,1.243,4.368,7.907,7.907,0,0,1-1.021,4.291,4.62,4.62,0,0,1-3.969,2.356,5.167,5.167,0,0,1-.854-.044v8.634h-1.907Zm1.907,10.107a3.093,3.093,0,0,0,.763.075c1.88,0,3.147-1.547,3.147-4.519,0-2.169-.706-4.095-2.845-4.095a3.2,3.2,0,0,0-1.065.157Z" transform="translate(824.077 -752.74)" fill="#fbbc08"/>
          <path id="Trazado_29" data-name="Trazado 29" d="M-731.577,767.735l-1.115,6.319h-1.859L-730.7,753h2.127l3.734,21.057h-1.894l-1.109-6.319Zm3.469-1.926-.879-5.353c-.246-1.493-.47-3.228-.673-4.8h-.085c-.192,1.6-.442,3.393-.68,4.823l-.883,5.332Z" transform="translate(823.534 -752.747)" fill="#fbbc08"/>
          <path id="Trazado_30" data-name="Trazado 30" d="M-722.323,771.261a4.3,4.3,0,0,0,2.414.856c1.763,0,2.813-1.446,2.813-3.578a5.668,5.668,0,0,0-2.224-4.376c-1.325-1.156-3.17-3.119-3.17-5.838,0-3.184,1.78-5.528,4.452-5.528a3.835,3.835,0,0,1,2.352.771l-.461,2.059a3.09,3.09,0,0,0-2.005-.719c-1.647,0-2.428,1.565-2.428,3.013,0,2.087.872,2.919,2.473,4.328a7.723,7.723,0,0,1,2.921,6.064c0,3.639-2.04,5.915-4.712,5.915a4.715,4.715,0,0,1-2.836-.92Z" transform="translate(822.745 -752.733)" fill="#fbbc08"/>
          <path id="Trazado_31" data-name="Trazado 31" d="M-710.3,753v21.057h-1.914V753Z" transform="translate(822.042 -752.747)" fill="#fbbc08"/>
          <path id="Trazado_32" data-name="Trazado 32" d="M-704.24,774.054-708.082,753h2.059l1.645,9.883c.389,2.371.89,5.4,1.178,8.082h.085c.252-2.712.713-5.645,1.12-8.153l1.612-9.812h2.034l-3.906,21.057Z" transform="translate(821.766 -752.747)" fill="#fbbc08"/>
          <path id="Trazado_33" data-name="Trazado 33" d="M-687.019,763.367c0,7.88-2.157,10.919-4.871,10.919-2.795,0-4.666-3.723-4.666-10.8,0-6.987,2.008-10.76,4.943-10.76C-688.737,752.729-687.019,756.637-687.019,763.367Zm-7.543.141c0,4.334.672,8.667,2.815,8.667,2.165,0,2.735-4.6,2.735-8.733,0-3.93-.575-8.6-2.76-8.6C-693.891,754.84-694.563,759.233-694.563,763.508Z" transform="translate(820.996 -752.729)" fill="#fbbc08"/>
          <path id="Trazado_34" data-name="Trazado 34" d="M-680.105,771.261a4.3,4.3,0,0,0,2.414.856c1.763,0,2.813-1.446,2.813-3.578a5.668,5.668,0,0,0-2.224-4.376c-1.325-1.156-3.171-3.119-3.171-5.838,0-3.184,1.781-5.528,4.453-5.528a3.835,3.835,0,0,1,2.352.771l-.462,2.059a3.087,3.087,0,0,0-2-.719c-1.648,0-2.429,1.565-2.429,3.013,0,2.087.874,2.919,2.474,4.328a7.723,7.723,0,0,1,2.921,6.064c0,3.639-2.04,5.915-4.712,5.915a4.713,4.713,0,0,1-2.836-.92Z" transform="translate(819.925 -752.733)" fill="#fbbc08"/>
          <path id="Trazado_35" data-name="Trazado 35" d="M-661.229,763.367c0,7.88-2.156,10.919-4.87,10.919-2.795,0-4.666-3.723-4.666-10.8,0-6.987,2.008-10.76,4.943-10.76C-662.948,752.729-661.229,756.637-661.229,763.367Zm-7.543.141c0,4.334.672,8.667,2.815,8.667,2.165,0,2.735-4.6,2.735-8.733,0-3.93-.574-8.6-2.76-8.6C-668.1,754.84-668.773,759.233-668.773,763.508Z" transform="translate(819.274 -752.729)" fill="#fbbc08"/>
          <path id="Trazado_36" data-name="Trazado 36" d="M-650.785,773.671a4.567,4.567,0,0,1-2.414.556c-3.276,0-5.635-3.31-5.635-10.458,0-8.3,3.288-10.973,5.952-10.973a3.57,3.57,0,0,1,2.092.519l-.425,2.051a2.886,2.886,0,0,0-1.692-.45c-1.793,0-3.91,2.2-3.91,8.612,0,6.458,1.9,8.56,3.965,8.56a3.609,3.609,0,0,0,1.759-.447Z" transform="translate(818.478 -752.733)" fill="#fbbc08"/>
          <path id="Trazado_37" data-name="Trazado 37" d="M-646.173,753v21.057h-1.915V753Z" transform="translate(817.76 -752.747)" fill="#fbbc08"/>
          <path id="Trazado_38" data-name="Trazado 38" d="M-640.831,767.735l-1.115,6.319h-1.859L-639.956,753h2.127l3.734,21.057h-1.893l-1.109-6.319Zm3.469-1.926-.878-5.353c-.247-1.493-.471-3.228-.674-4.8H-639c-.192,1.6-.442,3.393-.679,4.823l-.884,5.332Z" transform="translate(817.474 -752.747)" fill="#fbbc08"/>
          <path id="Trazado_39" data-name="Trazado 39" d="M-631.127,753h1.915v19.017h4.73v2.04h-6.645Z" transform="translate(816.627 -752.747)" fill="#fbbc08"/>
        </g>
      </g>
      <g id="Grupo_20" data-name="Grupo 20" transform="translate(0 23.347)">
        <g id="Grupo_19" data-name="Grupo 19">
          <path id="Trazado_40" data-name="Trazado 40" d="M-830.746,777.909h3.357v1.052h-2.5v3.389h2.318v1.04h-2.318v4.539h-.854Z" transform="translate(830.746 -777.758)" fill="#0da9c6"/>
          <path id="Trazado_41" data-name="Trazado 41" d="M-822.7,783.212h-2.368v3.664h2.659v1.053h-3.514v-10.02h3.366v1.052h-2.511v3.212h2.368Z" transform="translate(830.424 -777.758)" fill="#0da9c6"/>
          <path id="Trazado_42" data-name="Trazado 42" d="M-821.035,778.045a5.241,5.241,0,0,1,1.526-.209,2.1,2.1,0,0,1,1.847.792,3.244,3.244,0,0,1,.52,1.919,2.762,2.762,0,0,1-1.23,2.563v.035c.514.255.815.973.977,2.094a21.762,21.762,0,0,0,.484,2.686h-.88a18.707,18.707,0,0,1-.423-2.423c-.187-1.374-.536-1.9-1.293-1.926h-.678v4.349h-.85Zm.85,4.578h.731c.884,0,1.452-.769,1.452-1.932,0-1.258-.544-1.872-1.448-1.876a2.227,2.227,0,0,0-.734.1Z" transform="translate(830.097 -777.753)" fill="#0da9c6"/>
          <path id="Trazado_43" data-name="Trazado 43" d="M-815.6,778.045a5.221,5.221,0,0,1,1.525-.209,2.1,2.1,0,0,1,1.847.792,3.251,3.251,0,0,1,.52,1.919,2.762,2.762,0,0,1-1.231,2.563v.035c.515.255.816.973.977,2.094a21.857,21.857,0,0,0,.485,2.686h-.881a19.1,19.1,0,0,1-.423-2.423c-.187-1.374-.535-1.9-1.293-1.926h-.678v4.349h-.849Zm.849,4.578h.73c.884,0,1.453-.769,1.453-1.932,0-1.258-.544-1.872-1.448-1.876a2.223,2.223,0,0,0-.734.1Z" transform="translate(829.735 -777.753)" fill="#0da9c6"/>
          <path id="Trazado_44" data-name="Trazado 44" d="M-805.03,782.818c0,3.53-1.264,5.25-2.814,5.25-1.61,0-2.719-1.972-2.719-5.1,0-3.22,1.183-5.22,2.817-5.22C-806.088,777.747-805.03,779.773-805.03,782.818Zm-4.635.131c0,2.119.636,4.082,1.873,4.082s1.866-1.978,1.866-4.162c0-1.957-.568-4.082-1.861-4.082S-809.665,780.8-809.665,782.949Z" transform="translate(829.398 -777.747)" fill="#0da9c6"/>
          <path id="Trazado_45" data-name="Trazado 45" d="M-799.267,787.642a2.753,2.753,0,0,1-1.558.413c-1.747,0-3.045-1.723-3.045-5.047,0-3.387,1.413-5.246,3.222-5.246a2.293,2.293,0,0,1,1.391.383l-.2,1.03a2,2,0,0,0-1.168-.353c-1.342,0-2.342,1.366-2.342,4.124,0,2.637.905,4.033,2.316,4.033a2.239,2.239,0,0,0,1.228-.351Z" transform="translate(828.951 -777.748)" fill="#0da9c6"/>
          <path id="Trazado_46" data-name="Trazado 46" d="M-796.8,784.823l-.63,3.106h-.868l2.1-10.02h1l2.088,10.02H-794l-.647-3.106Zm1.994-.985-.581-2.783c-.133-.671-.232-1.336-.329-1.964h-.027c-.092.638-.2,1.322-.32,1.957l-.579,2.79Z" transform="translate(828.579 -777.758)" fill="#0da9c6"/>
          <path id="Trazado_47" data-name="Trazado 47" d="M-791.713,778.045a5.242,5.242,0,0,1,1.526-.209,2.1,2.1,0,0,1,1.848.792,3.253,3.253,0,0,1,.519,1.919,2.761,2.761,0,0,1-1.23,2.563v.035c.515.255.816.973.977,2.094a22.144,22.144,0,0,0,.484,2.686h-.88a19.072,19.072,0,0,1-.423-2.423c-.187-1.374-.535-1.9-1.293-1.926h-.677v4.349h-.851Zm.851,4.578h.73c.884,0,1.452-.769,1.452-1.932,0-1.258-.544-1.872-1.447-1.876a2.223,2.223,0,0,0-.734.1Z" transform="translate(828.139 -777.753)" fill="#0da9c6"/>
          <path id="Trazado_48" data-name="Trazado 48" d="M-786.281,778.045a5.239,5.239,0,0,1,1.526-.209,2.1,2.1,0,0,1,1.847.792,3.244,3.244,0,0,1,.52,1.919,2.761,2.761,0,0,1-1.23,2.563v.035c.514.255.816.973.977,2.094a21.737,21.737,0,0,0,.484,2.686h-.88a18.689,18.689,0,0,1-.423-2.423c-.188-1.374-.536-1.9-1.293-1.926h-.678v4.349h-.85Zm.85,4.578h.73c.885,0,1.453-.769,1.453-1.932,0-1.258-.544-1.872-1.448-1.876a2.227,2.227,0,0,0-.734.1Z" transform="translate(827.777 -777.753)" fill="#0da9c6"/>
          <path id="Trazado_49" data-name="Trazado 49" d="M-779.994,777.909v10.02h-.855v-10.02Z" transform="translate(827.414 -777.758)" fill="#0da9c6"/>
          <path id="Trazado_50" data-name="Trazado 50" d="M-778.382,777.909h.854v8.964h2.62v1.055h-3.474Z" transform="translate(827.249 -777.758)" fill="#0da9c6"/>
          <path id="Trazado_51" data-name="Trazado 51" d="M-770.446,783.212h-2.369v3.664h2.66v1.053h-3.514v-10.02h3.366v1.052h-2.512v3.212h2.369Z" transform="translate(826.935 -777.758)" fill="#0da9c6"/>
          <path id="Trazado_52" data-name="Trazado 52" d="M-768.93,786.418a2.165,2.165,0,0,0,1.4.578c.847,0,1.347-.692,1.347-1.706a2.19,2.19,0,0,0-1.176-2.012,3.154,3.154,0,0,1-1.652-2.823c0-1.546.837-2.691,2.094-2.691a2.075,2.075,0,0,1,1.342.449l-.229,1.037a1.744,1.744,0,0,0-1.148-.436c-.858,0-1.2.8-1.2,1.479,0,.949.4,1.39,1.253,1.964a3.226,3.226,0,0,1,1.576,2.933c0,1.6-.79,2.867-2.249,2.867a2.413,2.413,0,0,1-1.567-.59Z" transform="translate(826.632 -777.748)" fill="#0da9c6"/>
          <path id="Trazado_53" data-name="Trazado 53" d="M-761.728,787.929v-10.02h.9l1.909,4.954c.435,1.146.819,2.28,1.115,3.33l.021-.01c-.075-1.409-.1-2.652-.1-4.259v-4.015h.792v10.02h-.848l-1.91-5c-.412-1.089-.821-2.229-1.132-3.368l-.028.011c.055,1.291.068,2.517.068,4.318v4.041Z" transform="translate(826.137 -777.758)" fill="#0da9c6"/>
          <path id="Trazado_54" data-name="Trazado 54" d="M-754.224,784.823l-.63,3.106h-.867l2.1-10.02h1l2.088,10.02h-.891l-.647-3.106Zm1.994-.985-.582-2.783c-.133-.671-.232-1.336-.329-1.964h-.027c-.092.638-.2,1.322-.32,1.957l-.579,2.79Z" transform="translate(825.736 -777.758)" fill="#0da9c6"/>
          <path id="Trazado_55" data-name="Trazado 55" d="M-745.154,787.642a2.751,2.751,0,0,1-1.558.413c-1.747,0-3.044-1.723-3.044-5.047,0-3.387,1.412-5.246,3.222-5.246a2.291,2.291,0,0,1,1.39.383l-.2,1.03a2,2,0,0,0-1.168-.353c-1.341,0-2.342,1.366-2.342,4.124,0,2.637.905,4.033,2.316,4.033a2.239,2.239,0,0,0,1.228-.351Z" transform="translate(825.338 -777.748)" fill="#0da9c6"/>
          <path id="Trazado_56" data-name="Trazado 56" d="M-742.884,777.909v10.02h-.854v-10.02Z" transform="translate(824.936 -777.758)" fill="#0da9c6"/>
          <path id="Trazado_57" data-name="Trazado 57" d="M-736.132,782.818c0,3.53-1.263,5.25-2.814,5.25-1.609,0-2.719-1.972-2.719-5.1,0-3.22,1.183-5.22,2.817-5.22C-737.19,777.747-736.132,779.773-736.132,782.818Zm-4.635.131c0,2.119.637,4.082,1.873,4.082s1.866-1.978,1.866-4.162c0-1.957-.567-4.082-1.861-4.082S-740.767,780.8-740.767,782.949Z" transform="translate(824.797 -777.747)" fill="#0da9c6"/>
          <path id="Trazado_58" data-name="Trazado 58" d="M-734.58,787.929v-10.02h.9l1.908,4.954c.436,1.146.819,2.28,1.115,3.33l.022-.01c-.075-1.409-.1-2.652-.1-4.259v-4.015h.793v10.02h-.848l-1.91-5c-.413-1.089-.822-2.229-1.133-3.368l-.027.011c.054,1.291.068,2.517.068,4.318v4.041Z" transform="translate(824.324 -777.758)" fill="#0da9c6"/>
          <path id="Trazado_59" data-name="Trazado 59" d="M-727.075,784.823l-.63,3.106h-.868l2.1-10.02h1l2.088,10.02h-.891l-.648-3.106Zm1.993-.985-.581-2.783c-.133-.671-.232-1.336-.328-1.964h-.028c-.092.638-.2,1.322-.319,1.957l-.578,2.79Z" transform="translate(823.923 -777.758)" fill="#0da9c6"/>
          <path id="Trazado_60" data-name="Trazado 60" d="M-721.988,777.909h.854v8.964h2.622v1.055h-3.475Z" transform="translate(823.483 -777.758)" fill="#0da9c6"/>
          <path id="Trazado_61" data-name="Trazado 61" d="M-714.052,783.212h-2.368v3.664h2.66v1.053h-3.513v-10.02h3.365v1.052h-2.511v3.212h2.368Z" transform="translate(823.168 -777.758)" fill="#0da9c6"/>
          <path id="Trazado_62" data-name="Trazado 62" d="M-712.536,786.418a2.163,2.163,0,0,0,1.4.578c.846,0,1.346-.692,1.346-1.706a2.189,2.189,0,0,0-1.175-2.012,3.155,3.155,0,0,1-1.652-2.823c0-1.546.837-2.691,2.093-2.691a2.08,2.08,0,0,1,1.343.449l-.229,1.037a1.747,1.747,0,0,0-1.149-.436c-.858,0-1.2.8-1.2,1.479,0,.949.4,1.39,1.253,1.964a3.225,3.225,0,0,1,1.575,2.933c0,1.6-.788,2.867-2.248,2.867a2.415,2.415,0,0,1-1.568-.59Z" transform="translate(822.866 -777.748)" fill="#0da9c6"/>
          <path id="Trazado_63" data-name="Trazado 63" d="M-705.334,778.045a6.1,6.1,0,0,1,1.628-.209,2.8,2.8,0,0,1,2.419,1.108,6.072,6.072,0,0,1,.954,3.727,7.169,7.169,0,0,1-.933,4A3.072,3.072,0,0,1-703.949,788a7.563,7.563,0,0,1-1.385-.108Zm.852,8.887a3.373,3.373,0,0,0,.711.051c1.582.006,2.546-1.35,2.546-4.269.007-2.413-.791-3.876-2.423-3.876a2.917,2.917,0,0,0-.834.109Z" transform="translate(822.371 -777.753)" fill="#0da9c6"/>
          <path id="Trazado_64" data-name="Trazado 64" d="M-695.606,783.212h-2.368v3.664h2.66v1.053h-3.514v-10.02h3.367v1.052h-2.512v3.212h2.368Z" transform="translate(821.937 -777.758)" fill="#0da9c6"/>
          <path id="Trazado_65" data-name="Trazado 65" d="M-687.6,787.642a2.754,2.754,0,0,1-1.559.413c-1.747,0-3.045-1.723-3.045-5.047,0-3.387,1.413-5.246,3.222-5.246a2.294,2.294,0,0,1,1.391.383l-.2,1.03a2.005,2.005,0,0,0-1.168-.353c-1.342,0-2.342,1.366-2.342,4.124,0,2.637.905,4.033,2.316,4.033a2.238,2.238,0,0,0,1.228-.351Z" transform="translate(821.494 -777.748)" fill="#0da9c6"/>
          <path id="Trazado_66" data-name="Trazado 66" d="M-681.314,782.818c0,3.53-1.263,5.25-2.813,5.25-1.61,0-2.719-1.972-2.719-5.1,0-3.22,1.182-5.22,2.816-5.22C-682.371,777.747-681.314,779.773-681.314,782.818Zm-4.634.131c0,2.119.636,4.082,1.872,4.082s1.865-1.978,1.865-4.162c0-1.957-.566-4.082-1.861-4.082S-685.948,780.8-685.948,782.949Z" transform="translate(821.137 -777.747)" fill="#0da9c6"/>
          <path id="Trazado_67" data-name="Trazado 67" d="M-679.761,777.909h.855v8.964h2.621v1.055h-3.475Z" transform="translate(820.664 -777.758)" fill="#0da9c6"/>
          <path id="Trazado_68" data-name="Trazado 68" d="M-670.33,782.818c0,3.53-1.264,5.25-2.814,5.25-1.609,0-2.719-1.972-2.719-5.1,0-3.22,1.183-5.22,2.817-5.22C-671.388,777.747-670.33,779.773-670.33,782.818Zm-4.635.131c0,2.119.637,4.082,1.873,4.082s1.865-1.978,1.865-4.162c0-1.957-.567-4.082-1.861-4.082S-674.965,780.8-674.965,782.949Z" transform="translate(820.403 -777.747)" fill="#0da9c6"/>
          <path id="Trazado_69" data-name="Trazado 69" d="M-663.516,783.554c-.05-1.37-.107-2.995-.1-4.2h-.032c-.209,1.151-.462,2.393-.764,3.7l-1.1,4.811h-.617l-1.018-4.692c-.3-1.374-.542-2.644-.717-3.823h-.026c-.016,1.229-.06,2.816-.12,4.3l-.165,4.281h-.8l.455-10.02h1.043l1.054,4.771c.266,1.254.479,2.322.646,3.395h.028c.165-1.052.378-2.112.657-3.395l1.086-4.771h1.053l.413,10.02h-.827Z" transform="translate(819.943 -777.758)" fill="#0da9c6"/>
          <path id="Trazado_70" data-name="Trazado 70" d="M-660.716,778.045a4.9,4.9,0,0,1,1.47-.209,2.063,2.063,0,0,1,1.765.717,2.678,2.678,0,0,1,.535,1.758,2.426,2.426,0,0,1-1.124,2.2v.04a2.5,2.5,0,0,1,1.367,2.527,3.427,3.427,0,0,1-.554,1.992,2.451,2.451,0,0,1-2.195.932,6.791,6.791,0,0,1-1.264-.108Zm.849,4.105h.674c.837,0,1.384-.72,1.384-1.715,0-1.091-.508-1.634-1.383-1.634a1.959,1.959,0,0,0-.675.087Zm0,4.813a2.371,2.371,0,0,0,.638.062c.885,0,1.631-.552,1.631-1.963,0-1.366-.759-1.963-1.654-1.968h-.616Z" transform="translate(819.392 -777.753)" fill="#0da9c6"/>
          <path id="Trazado_71" data-name="Trazado 71" d="M-654.387,777.909v10.02h-.855v-10.02Z" transform="translate(819.026 -777.758)" fill="#0da9c6"/>
          <path id="Trazado_72" data-name="Trazado 72" d="M-651.789,784.823l-.63,3.106h-.868l2.1-10.02h1l2.088,10.02h-.891l-.648-3.106Zm1.993-.985-.581-2.783c-.132-.671-.232-1.336-.328-1.964h-.027c-.092.638-.2,1.322-.32,1.957l-.579,2.79Z" transform="translate(818.896 -777.758)" fill="#0da9c6"/>
        </g>
      </g>
    </g>
    <g id="Grupo_22" data-name="Grupo 22" transform="translate(-871.149 734.922)">
      <path id="Trazado_73" data-name="Trazado 73" d="M-861.544,750.52c1.482.038,12.729.137,16.3,3.287.51.517,2.637,1.985.927,4.77-1.39,1.9-5.418,7.779-10.418,11.2-2.176,1.343-1.945-.648-1.157-1.482,6.853-7.084,5.279-10.7,5.279-10.7s-.6-1.945-4.26-2.222c-.787-.046-4.584-.463-6.667.509a4.933,4.933,0,0,0-1.9,1.806s-6.668,11.344.323,21.948c1.444,2.427,8.2,7.038,2.547,6.066-10-3.426-10.418-14.864-10.557-16.206-.324-11.992,3.381-16.437,4.167-17.594C-866.348,751.151-865.42,750.33-861.544,750.52Z" transform="translate(871.149 -738.782)" fill="#0da9c6"/>
      <path id="Trazado_74" data-name="Trazado 74" d="M-845.63,740.583c0,3.126-2.986,5.66-6.671,5.66s-6.672-2.534-6.672-5.66,2.987-5.661,6.672-5.661S-845.63,737.456-845.63,740.583Z" transform="translate(868.13 -734.922)" fill="#0da9c6"/>
      <path id="Trazado_75" data-name="Trazado 75" d="M-854.939,778.334a2.62,2.62,0,0,1-2.427,2.778,2.62,2.62,0,0,1-2.428-2.778,2.621,2.621,0,0,1,2.428-2.778,2.621,2.621,0,0,1,2.427,2.778" transform="translate(868.333 -744.997)" fill="#fbbc08"/>
    </g>
  </g>
</svg>
